#N canvas 4 50 960 540 10;
#N canvas 0 50 450 250 (subpatch) 0;
#X array array1 4410 float 2;
#X coords 0 1 4410 -1 240 50 1 0 0;
#X restore 121 -2 graph;
#X text 108 400 C;
#X text 108 370 D;
#X text 108 340 E;
#X text 108 325 F;
#X text 108 295 G;
#X text 108 265 A;
#X text 108 235 B;
#X obj 121 205 vradio 15 1 0 14 s1-1 1-1 empty 0 -8 0 10 -90881 -258699
-262144 13;
#X obj 136 205 vradio 15 1 0 14 s1-2 1-2 empty 0 -8 0 10 -260818 -258699
-262144 10;
#X obj 151 205 vradio 15 1 0 14 s1-3 1-3 empty 0 -8 0 10 -260818 -258699
-262144 13;
#X obj 166 205 vradio 15 1 0 14 s1-4 1-4 empty 0 -8 0 10 -260818 -258699
-262144 8;
#X obj 181 205 vradio 15 1 0 14 s2-1 2-1 empty 0 -8 0 10 -258699 -260818
-262144 10;
#X obj 196 205 vradio 15 1 0 14 s2-2 2-2 empty 0 -8 0 10 -260818 -258699
-262144 11;
#X obj 211 205 vradio 15 1 0 14 s2-3 2-3 empty 0 -8 0 10 -260818 -258699
-262144 13;
#X obj 226 205 vradio 15 1 0 14 s2-4 2-4 empty 0 -8 0 10 -260818 -258699
-262144 13;
#X obj 241 205 vradio 15 1 0 14 s3-1 3-1 empty 0 -8 0 10 -90881 -258699
-262144 1;
#X obj 256 205 vradio 15 1 0 14 s3-2 3-2 empty 0 -8 0 10 -260818 -258699
-262144 3;
#X obj 271 205 vradio 15 1 0 14 s3-3 3-3 empty 0 -8 0 10 -260818 -258699
-262144 1;
#X obj 286 205 vradio 15 1 0 14 s3-4 3-4 empty 0 -8 0 10 -260818 -258699
-262144 3;
#X obj 301 205 vradio 15 1 0 14 s4-1 4-1 empty 0 -8 0 10 -90881 -258699
-262144 6;
#X obj 316 205 vradio 15 1 0 14 s4-2 4-2 empty 0 -8 0 10 -260818 -258699
-262144 7;
#X obj 331 205 vradio 15 1 0 14 s4-3 4-3 empty 0 -8 0 10 -260818 -258699
-262144 8;
#X obj 346 205 vradio 15 1 0 14 s4-4 4-4 empty 0 -8 0 10 -260818 -258699
-262144 7;
#X text 94 205 Off;
#X obj 623 48 route 0 1 2 3 4 5 6 7 8 9 10 11 12 13 14 15;
#X obj 623 23 r ndx;
#X obj 623 72 vradio 15 1 0 2 empty empty empty 0 -8 0 10 -262144 -1
-1 1;
#X obj 638 72 vradio 15 1 0 2 empty empty empty 0 -8 0 10 -262144 -1
-1 0;
#X obj 653 72 vradio 15 1 0 2 empty empty empty 0 -8 0 10 -262144 -1
-1 0;
#X obj 668 72 vradio 15 1 0 2 empty empty empty 0 -8 0 10 -262144 -1
-1 0;
#X obj 703 72 vradio 15 1 0 2 empty empty empty 0 -8 0 10 -262144 -1
-1 1;
#X obj 718 72 vradio 15 1 0 2 empty empty empty 0 -8 0 10 -262144 -1
-1 0;
#X obj 733 72 vradio 15 1 0 2 empty empty empty 0 -8 0 10 -262144 -1
-1 0;
#X obj 748 72 vradio 15 1 0 2 empty empty empty 0 -8 0 10 -262144 -1
-1 0;
#X obj 783 72 vradio 15 1 0 2 empty empty empty 0 -8 0 10 -262144 -1
-1 1;
#X obj 798 72 vradio 15 1 0 2 empty empty empty 0 -8 0 10 -262144 -1
-1 0;
#X obj 813 72 vradio 15 1 0 2 empty empty empty 0 -8 0 10 -262144 -1
-1 0;
#X obj 828 72 vradio 15 1 0 2 empty empty empty 0 -8 0 10 -262144 -1
-1 0;
#X obj 863 72 vradio 15 1 0 2 empty empty empty 0 -8 0 10 -262144 -1
-1 1;
#X obj 878 72 vradio 15 1 0 2 empty empty empty 0 -8 0 10 -262144 -1
-1 0;
#X obj 893 72 vradio 15 1 0 2 empty empty empty 0 -8 0 10 -262144 -1
-1 0;
#X obj 908 72 vradio 15 1 0 2 empty empty empty 0 -8 0 10 -262144 -1
-1 0;
#X floatatom 623 111 5 0 0 0 - - -, f 5;
#X obj 538 168 s kick;
#X obj 538 12 r ndx;
#X obj 538 57 bng 15 250 50 0 empty empty empty 17 7 0 10 -262144 -1
-1;
#X text 108 220 C;
#X obj 538 107 bng 15 250 50 0 empty empty empty 17 7 0 10 -262144
-1 -1;
#X obj 538 125 v $kick;
#N canvas 112 80 1158 567 pattern 0;
#X floatatom -233 -49 5 0 0 0 - - -, f 5;
#X floatatom -173 -49 5 0 0 0 - - -, f 5;
#X floatatom -113 -49 5 0 0 0 - - -, f 5;
#X floatatom -53 -49 5 0 0 0 - - -, f 5;
#X obj -233 -74 r s1-1;
#X obj -173 -74 r s1-2;
#X obj -113 -74 r s1-3;
#X obj -53 -74 r s1-4;
#X floatatom 17 -49 5 0 0 0 - - -, f 5;
#X floatatom 77 -49 5 0 0 0 - - -, f 5;
#X floatatom 137 -49 5 0 0 0 - - -, f 5;
#X floatatom 197 -49 5 0 0 0 - - -, f 5;
#X obj 17 -74 r s2-1;
#X obj 77 -74 r s2-2;
#X obj 137 -74 r s2-3;
#X obj 197 -74 r s2-4;
#X floatatom 267 -49 5 0 0 0 - - -, f 5;
#X floatatom 327 -49 5 0 0 0 - - -, f 5;
#X floatatom 387 -49 5 0 0 0 - - -, f 5;
#X floatatom 447 -49 5 0 0 0 - - -, f 5;
#X floatatom 517 -49 5 0 0 0 - - -, f 5;
#X floatatom 577 -49 5 0 0 0 - - -, f 5;
#X floatatom 637 -49 5 0 0 0 - - -, f 5;
#X floatatom 697 -49 5 0 0 0 - - -, f 5;
#X obj 267 -74 r s3-1;
#X obj 327 -74 r s3-2;
#X obj 387 -74 r s3-3;
#X obj 447 -74 r s3-4;
#X obj 517 -74 r s4-1;
#X obj 577 -74 r s4-2;
#X obj 637 -74 r s4-3;
#X obj 697 -74 r s4-4;
#X obj -273 406 s 1-1;
#X obj -213 406 s 1-2;
#X obj -153 406 s 1-3;
#X obj -93 406 s 1-4;
#X obj 657 406 s 4-4;
#X obj 597 406 s 4-3;
#X obj 537 406 s 4-2;
#X obj 477 406 s 4-1;
#X obj 407 406 s 3-4;
#X obj 347 406 s 3-3;
#X obj 287 406 s 3-2;
#X obj 227 406 s 3-1;
#X obj 157 406 s 2-4;
#X obj 97 406 s 2-3;
#X obj 37 406 s 2-2;
#X obj -23 406 s 2-1;
#X msg -233 103 \; pattern\$17 0 \$1 \$2 \$3 \$4 \; pattern\$17 4 \$5
\$6 \$7 \$8 \; pattern\$17 8 \$9 \$10 \$11 \$12 \; pattern\$17 12 \$13
\$14 \$15 \$16;
#X obj -233 62 pack f f f f f f f f f f f f f f f f f;
#X floatatom 56 62 5 1 4 1 - - -, f 5;
#X obj 253 103 bng 15 250 50 0 Save empty save 17 7 0 10 -262144 -1
-1;
#X obj 296 103 bng 15 250 50 0 Load empty load 17 7 0 10 -262144 -1
-1;
#X msg 228 73 1;
#X obj 228 48 bng 15 250 50 0 empty start empty 17 7 0 10 -4034 -1
-1;
#X msg -233 -26 set \$1;
#X msg -233 -4 13;
#X msg -173 -26 set \$1;
#X msg -173 -4 10;
#X msg -113 -26 set \$1;
#X msg -113 -4 13;
#X msg -53 -26 set \$1;
#X msg -53 -4 8;
#X msg 17 -26 set \$1;
#X msg 17 -4 10;
#X msg 77 -26 set \$1;
#X msg 77 -4 11;
#X msg 137 -26 set \$1;
#X msg 137 -4 13;
#X msg 197 -26 set \$1;
#X msg 197 -4 13;
#X msg 267 -26 set \$1;
#X msg 267 -4 1;
#X msg 327 -26 set \$1;
#X msg 327 -4 3;
#X msg 387 -26 set \$1;
#X msg 387 -4 1;
#X msg 447 -26 set \$1;
#X msg 447 -4 3;
#X msg 517 -26 set \$1;
#X msg 517 -4 6;
#X msg 577 -26 set \$1;
#X msg 577 -4 7;
#X msg 637 -26 set \$1;
#X msg 637 -4 8;
#X msg 697 -26 set \$1;
#X msg 697 -4 7;
#X obj -283 -19 bng 15 250 50 0 empty Save empty 17 7 0 10 -262144
-1 -1;
#X floatatom -273 339 5 0 0 0 - - -, f 5;
#X floatatom -213 339 5 0 0 0 - - -, f 5;
#X floatatom -153 339 5 0 0 0 - - -, f 5;
#X floatatom -93 339 5 0 0 0 - - -, f 5;
#X floatatom -23 339 5 0 0 0 - - -, f 5;
#X floatatom 37 339 5 0 0 0 - - -, f 5;
#X floatatom 97 339 5 0 0 0 - - -, f 5;
#X floatatom 157 339 5 0 0 0 - - -, f 5;
#X floatatom 227 339 5 0 0 0 - - -, f 5;
#X floatatom 287 339 5 0 0 0 - - -, f 5;
#X floatatom 347 339 5 0 0 0 - - -, f 5;
#X floatatom 407 339 5 0 0 0 - - -, f 5;
#X floatatom 477 339 5 0 0 0 - - -, f 5;
#X floatatom 537 339 5 0 0 0 - - -, f 5;
#X floatatom 597 339 5 0 0 0 - - -, f 5;
#X floatatom 657 339 5 0 0 0 - - -, f 5;
#X msg -273 362 set \$1;
#X msg -273 384 13;
#X msg -213 362 set \$1;
#X msg -213 384 10;
#X msg -153 362 set \$1;
#X msg -153 384 13;
#X msg -93 362 set \$1;
#X msg -93 384 8;
#X msg -23 362 set \$1;
#X msg -23 384 10;
#X msg 37 362 set \$1;
#X msg 37 384 11;
#X msg 97 362 set \$1;
#X msg 97 384 13;
#X msg 157 362 set \$1;
#X msg 157 384 13;
#X msg 227 362 set \$1;
#X msg 227 384 1;
#X msg 287 362 set \$1;
#X msg 287 384 3;
#X msg 347 362 set \$1;
#X msg 347 384 1;
#X msg 407 362 set \$1;
#X msg 407 384 3;
#X msg 477 362 set \$1;
#X msg 477 384 6;
#X msg 537 362 set \$1;
#X msg 537 384 7;
#X msg 597 362 set \$1;
#X msg 597 384 8;
#X msg 657 362 set \$1;
#X msg 657 384 7;
#X msg 450 211 set pattern1;
#X msg 472 185 set pattern2;
#X msg 494 162 set pattern3;
#X msg 516 139 set pattern4;
#X obj 450 110 route 1 2 3 4;
#X obj 757 369 bng 15 250 50 0 empty empty empty 17 7 0 10 -262144
-1 -1;
#X msg 56 81 set \$1;
#X msg 56 103 1;
#X obj -283 -49 del 10;
#X obj -283 -79 bng 15 250 50 0 empty Save empty 17 7 0 10 -262144
-1 -1;
#X floatatom 450 87 5 0 0 0 - - -, f 5;
#X msg -273 283 0;
#N canvas 0 50 450 300 ReAr 0;
#X obj 65 115 inlet;
#X obj 65 137 tabread pattern1;
#X obj 29 84 r patternum;
#X obj 65 161 outlet;
#X connect 0 0 1 0;
#X connect 1 0 3 0;
#X connect 2 0 1 0;
#X restore -273 309 pd ReAr;
#X obj 516 244 s patternum;
#N canvas 0 50 450 300 ReAr 0;
#X obj 65 115 inlet;
#X obj 65 137 tabread pattern1;
#X obj 29 84 r patternum;
#X obj 65 161 outlet;
#X connect 0 0 1 0;
#X connect 1 0 3 0;
#X connect 2 0 1 0;
#X restore -213 309 pd ReAr;
#N canvas 0 50 450 300 ReAr 0;
#X obj 65 115 inlet;
#X obj 65 137 tabread pattern1;
#X obj 29 84 r patternum;
#X obj 65 161 outlet;
#X connect 0 0 1 0;
#X connect 1 0 3 0;
#X connect 2 0 1 0;
#X restore -153 309 pd ReAr;
#N canvas 0 50 450 300 ReAr 0;
#X obj 65 115 inlet;
#X obj 65 137 tabread pattern1;
#X obj 29 84 r patternum;
#X obj 65 161 outlet;
#X connect 0 0 1 0;
#X connect 1 0 3 0;
#X connect 2 0 1 0;
#X restore -93 309 pd ReAr;
#N canvas 0 50 450 300 ReAr 0;
#X obj 65 115 inlet;
#X obj 65 137 tabread pattern1;
#X obj 29 84 r patternum;
#X obj 65 161 outlet;
#X connect 0 0 1 0;
#X connect 1 0 3 0;
#X connect 2 0 1 0;
#X restore -23 309 pd ReAr;
#N canvas 0 50 450 300 ReAr 0;
#X obj 65 115 inlet;
#X obj 65 137 tabread pattern1;
#X obj 29 84 r patternum;
#X obj 65 161 outlet;
#X connect 0 0 1 0;
#X connect 1 0 3 0;
#X connect 2 0 1 0;
#X restore 37 309 pd ReAr;
#N canvas 0 50 450 300 ReAr 0;
#X obj 65 115 inlet;
#X obj 65 137 tabread pattern1;
#X obj 29 84 r patternum;
#X obj 65 161 outlet;
#X connect 0 0 1 0;
#X connect 1 0 3 0;
#X connect 2 0 1 0;
#X restore 97 309 pd ReAr;
#N canvas 0 50 450 300 ReAr 0;
#X obj 65 115 inlet;
#X obj 65 137 tabread pattern1;
#X obj 29 84 r patternum;
#X obj 65 161 outlet;
#X connect 0 0 1 0;
#X connect 1 0 3 0;
#X connect 2 0 1 0;
#X restore 157 309 pd ReAr;
#N canvas 0 50 450 300 ReAr 0;
#X obj 65 115 inlet;
#X obj 65 137 tabread pattern1;
#X obj 29 84 r patternum;
#X obj 65 161 outlet;
#X connect 0 0 1 0;
#X connect 1 0 3 0;
#X connect 2 0 1 0;
#X restore 227 309 pd ReAr;
#N canvas 0 50 450 300 ReAr 0;
#X obj 65 115 inlet;
#X obj 65 137 tabread pattern1;
#X obj 29 84 r patternum;
#X obj 65 161 outlet;
#X connect 0 0 1 0;
#X connect 1 0 3 0;
#X connect 2 0 1 0;
#X restore 287 309 pd ReAr;
#N canvas 0 50 450 300 ReAr 0;
#X obj 65 115 inlet;
#X obj 65 137 tabread pattern1;
#X obj 29 84 r patternum;
#X obj 65 161 outlet;
#X connect 0 0 1 0;
#X connect 1 0 3 0;
#X connect 2 0 1 0;
#X restore 347 309 pd ReAr;
#N canvas 0 50 450 300 ReAr 0;
#X obj 65 115 inlet;
#X obj 65 137 tabread pattern1;
#X obj 29 84 r patternum;
#X obj 65 161 outlet;
#X connect 0 0 1 0;
#X connect 1 0 3 0;
#X connect 2 0 1 0;
#X restore 407 309 pd ReAr;
#N canvas 0 50 450 300 ReAr 0;
#X obj 65 115 inlet;
#X obj 65 137 tabread pattern1;
#X obj 29 84 r patternum;
#X obj 65 161 outlet;
#X connect 0 0 1 0;
#X connect 1 0 3 0;
#X connect 2 0 1 0;
#X restore 477 309 pd ReAr;
#N canvas 0 50 450 300 ReAr 0;
#X obj 65 115 inlet;
#X obj 65 137 tabread pattern1;
#X obj 29 84 r patternum;
#X obj 65 161 outlet;
#X connect 0 0 1 0;
#X connect 1 0 3 0;
#X connect 2 0 1 0;
#X restore 537 309 pd ReAr;
#N canvas 0 50 450 300 ReAr 0;
#X obj 65 115 inlet;
#X obj 65 137 tabread pattern1;
#X obj 29 84 r patternum;
#X obj 65 161 outlet;
#X connect 0 0 1 0;
#X connect 1 0 3 0;
#X connect 2 0 1 0;
#X restore 597 309 pd ReAr;
#N canvas 0 50 450 300 ReAr 0;
#X obj 65 115 inlet;
#X obj 65 137 tabread pattern1;
#X obj 29 84 r patternum;
#X obj 65 161 outlet;
#X connect 0 0 1 0;
#X connect 1 0 3 0;
#X connect 2 0 1 0;
#X restore 657 309 pd ReAr;
#X msg -213 283 1;
#X msg -153 283 2;
#X msg -93 283 3;
#X msg -23 283 4;
#X msg 37 283 5;
#X msg 97 283 6;
#X msg 157 283 7;
#X msg 227 283 8;
#X msg 287 283 9;
#X msg 347 283 10;
#X msg 407 283 11;
#X msg 477 283 12;
#X msg 537 283 13;
#X msg 597 283 14;
#X msg 657 283 15;
#X obj 378 254 bng 15 250 50 0 empty empty empty 17 7 0 10 -262144
-1 -1;
#X obj 378 118 del 10;
#X obj 757 269 del 10;
#X obj 105 136 cnv 15 50 50 empty pattern1Col empty 20 12 0 14 -258699
-262144 0;
#X obj 165 136 cnv 15 50 50 empty pattern2Col empty 20 12 0 14 -260818
-262144 0;
#X obj 225 136 cnv 15 50 50 empty pattern3Col empty 20 12 0 14 -260818
-262144 0;
#X obj 285 136 cnv 15 50 50 empty pattern4Col empty 20 12 0 14 -260818
-262144 0;
#N canvas 0 50 450 250 (subpatch) 0;
#X array pattern2 16 float 3;
#A 0 13 0 1 0 13 1 3 0 13 1 0 1 8 13 1 0;
#X coords 0 0 16 16 50 50 1 0 0;
#X restore 165 136 graph;
#N canvas 0 50 450 250 (subpatch) 0;
#X array pattern3 16 float 3;
#A 0 13 0 0 0 13 0 0 0 13 10 0 7 0 0 1 0;
#X coords 0 0 16 16 50 50 1 0 0;
#X restore 225 136 graph;
#N canvas 0 50 450 250 (subpatch) 0;
#X array pattern1 16 float 3;
#A 0 13 10 13 8 10 11 13 13 1 3 1 3 6 7 8 7;
#X coords 0 0 16 16 50 50 1 0 0;
#X restore 105 136 graph;
#N canvas 0 50 450 250 (subpatch) 0;
#X array pattern4 16 float 3;
#A 0 13 0 1 0 13 1 3 0 13 1 0 1 8 13 1 0;
#X coords 0 0 16 16 50 50 1 0 0;
#X restore 285 136 graph;
#N canvas 0 50 658 300 patterncolor 0;
#X obj 34 188 s pattern1Col;
#X obj 364 188 s pattern4Col;
#X obj 254 188 s pattern3Col;
#X obj 144 188 s pattern2Col;
#X obj 118 54 route 1 2 3 4;
#X obj 118 24 inlet;
#X msg 24 144 color 13;
#X msg 34 164 color 14;
#X msg 134 144 color 13;
#X msg 144 164 color 14;
#X msg 244 144 color 13;
#X msg 254 164 color 14;
#X msg 354 144 color 13;
#X msg 364 164 color 14;
#X connect 4 0 6 0;
#X connect 4 0 9 0;
#X connect 4 0 11 0;
#X connect 4 0 13 0;
#X connect 4 1 8 0;
#X connect 4 1 7 0;
#X connect 4 1 11 0;
#X connect 4 1 13 0;
#X connect 4 2 10 0;
#X connect 4 2 7 0;
#X connect 4 2 9 0;
#X connect 4 2 13 0;
#X connect 4 3 12 0;
#X connect 4 3 7 0;
#X connect 4 3 9 0;
#X connect 4 3 11 0;
#X connect 5 0 4 0;
#X connect 6 0 0 0;
#X connect 7 0 0 0;
#X connect 8 0 3 0;
#X connect 9 0 3 0;
#X connect 10 0 2 0;
#X connect 11 0 2 0;
#X connect 12 0 1 0;
#X connect 13 0 1 0;
#X restore 575 101 pd patterncolor;
#X obj 274 70 r patcmd1;
#X obj 353 70 r patcmd2;
#X obj 184 104 tgl 15 0 empty start empty 17 7 0 10 -159808 -232576
-1 1 1;
#X obj 104 104 hradio 15 1 0 4 empty empty empty 0 -8 0 10 -260097
-258113 -1 0;
#X obj 167 104 tgl 15 0 empty start empty 17 7 0 10 -4034 -1 -1 1 1
;
#X obj 104 199 s patcmd0;
#X obj 167 239 s bloop0-1;
#X obj 184 219 s bloop0-2;
#X obj 203 103 bng 15 250 50 0 empty empty reset 17 7 0 10 -262144
-1 -1;
#N canvas 0 50 1016 324 reset 0;
#X obj -343 176 s 1-1;
#X obj -283 176 s 1-2;
#X obj -223 176 s 1-3;
#X obj -163 176 s 1-4;
#X obj 587 176 s 4-4;
#X obj 527 176 s 4-3;
#X obj 467 176 s 4-2;
#X obj 407 176 s 4-1;
#X obj 337 176 s 3-4;
#X obj 277 176 s 3-3;
#X obj 217 176 s 3-2;
#X obj 157 176 s 3-1;
#X obj 87 176 s 2-4;
#X obj 27 176 s 2-3;
#X obj -33 176 s 2-2;
#X obj -93 176 s 2-1;
#X msg 34 103 0;
#X obj 34 73 inlet;
#X connect 16 0 0 0;
#X connect 16 0 1 0;
#X connect 16 0 2 0;
#X connect 16 0 3 0;
#X connect 16 0 15 0;
#X connect 16 0 14 0;
#X connect 16 0 13 0;
#X connect 16 0 12 0;
#X connect 16 0 11 0;
#X connect 16 0 10 0;
#X connect 16 0 9 0;
#X connect 16 0 8 0;
#X connect 16 0 7 0;
#X connect 16 0 6 0;
#X connect 16 0 5 0;
#X connect 16 0 4 0;
#X connect 17 0 16 0;
#X restore 203 199 pd reset;
#X connect 0 0 55 0;
#X connect 1 0 57 0;
#X connect 2 0 59 0;
#X connect 3 0 61 0;
#X connect 4 0 0 0;
#X connect 5 0 1 0;
#X connect 6 0 2 0;
#X connect 7 0 3 0;
#X connect 8 0 63 0;
#X connect 9 0 65 0;
#X connect 10 0 67 0;
#X connect 11 0 69 0;
#X connect 12 0 8 0;
#X connect 13 0 9 0;
#X connect 14 0 10 0;
#X connect 15 0 11 0;
#X connect 16 0 71 0;
#X connect 17 0 73 0;
#X connect 18 0 75 0;
#X connect 19 0 77 0;
#X connect 20 0 79 0;
#X connect 21 0 81 0;
#X connect 22 0 83 0;
#X connect 23 0 85 0;
#X connect 24 0 16 0;
#X connect 25 0 17 0;
#X connect 26 0 18 0;
#X connect 27 0 19 0;
#X connect 28 0 20 0;
#X connect 29 0 21 0;
#X connect 30 0 22 0;
#X connect 31 0 23 0;
#X connect 49 0 48 0;
#X connect 50 0 142 0;
#X connect 52 0 181 0;
#X connect 53 0 50 0;
#X connect 54 0 53 0;
#X connect 54 0 52 0;
#X connect 55 0 56 0;
#X connect 56 0 49 0;
#X connect 57 0 58 0;
#X connect 58 0 49 1;
#X connect 59 0 60 0;
#X connect 60 0 49 2;
#X connect 61 0 62 0;
#X connect 62 0 49 3;
#X connect 63 0 64 0;
#X connect 64 0 49 4;
#X connect 65 0 66 0;
#X connect 66 0 49 5;
#X connect 67 0 68 0;
#X connect 68 0 49 6;
#X connect 69 0 70 0;
#X connect 70 0 49 7;
#X connect 71 0 72 0;
#X connect 72 0 49 8;
#X connect 73 0 74 0;
#X connect 74 0 49 9;
#X connect 75 0 76 0;
#X connect 76 0 49 10;
#X connect 77 0 78 0;
#X connect 78 0 49 11;
#X connect 79 0 80 0;
#X connect 80 0 49 12;
#X connect 81 0 82 0;
#X connect 82 0 49 13;
#X connect 83 0 84 0;
#X connect 84 0 49 14;
#X connect 85 0 86 0;
#X connect 86 0 49 15;
#X connect 87 0 56 0;
#X connect 87 0 58 0;
#X connect 87 0 60 0;
#X connect 87 0 62 0;
#X connect 87 0 64 0;
#X connect 87 0 66 0;
#X connect 87 0 68 0;
#X connect 87 0 70 0;
#X connect 87 0 72 0;
#X connect 87 0 74 0;
#X connect 87 0 76 0;
#X connect 87 0 78 0;
#X connect 87 0 80 0;
#X connect 87 0 82 0;
#X connect 87 0 84 0;
#X connect 87 0 86 0;
#X connect 87 0 143 0;
#X connect 88 0 104 0;
#X connect 89 0 106 0;
#X connect 90 0 108 0;
#X connect 91 0 110 0;
#X connect 92 0 112 0;
#X connect 93 0 114 0;
#X connect 94 0 116 0;
#X connect 95 0 118 0;
#X connect 96 0 120 0;
#X connect 97 0 122 0;
#X connect 98 0 124 0;
#X connect 99 0 126 0;
#X connect 100 0 128 0;
#X connect 101 0 130 0;
#X connect 102 0 132 0;
#X connect 103 0 134 0;
#X connect 104 0 105 0;
#X connect 105 0 32 0;
#X connect 106 0 107 0;
#X connect 107 0 33 0;
#X connect 108 0 109 0;
#X connect 109 0 34 0;
#X connect 110 0 111 0;
#X connect 111 0 35 0;
#X connect 112 0 113 0;
#X connect 113 0 47 0;
#X connect 114 0 115 0;
#X connect 115 0 46 0;
#X connect 116 0 117 0;
#X connect 117 0 45 0;
#X connect 118 0 119 0;
#X connect 119 0 44 0;
#X connect 120 0 121 0;
#X connect 121 0 43 0;
#X connect 122 0 123 0;
#X connect 123 0 42 0;
#X connect 124 0 125 0;
#X connect 125 0 41 0;
#X connect 126 0 127 0;
#X connect 127 0 40 0;
#X connect 128 0 129 0;
#X connect 129 0 39 0;
#X connect 130 0 131 0;
#X connect 131 0 38 0;
#X connect 132 0 133 0;
#X connect 133 0 37 0;
#X connect 134 0 135 0;
#X connect 135 0 36 0;
#X connect 136 0 149 0;
#X connect 137 0 149 0;
#X connect 138 0 149 0;
#X connect 139 0 149 0;
#X connect 140 0 136 0;
#X connect 140 1 137 0;
#X connect 140 2 138 0;
#X connect 140 3 139 0;
#X connect 141 0 135 0;
#X connect 141 0 133 0;
#X connect 141 0 131 0;
#X connect 141 0 129 0;
#X connect 141 0 127 0;
#X connect 141 0 125 0;
#X connect 141 0 123 0;
#X connect 141 0 121 0;
#X connect 141 0 119 0;
#X connect 141 0 117 0;
#X connect 141 0 115 0;
#X connect 141 0 113 0;
#X connect 141 0 111 0;
#X connect 141 0 109 0;
#X connect 141 0 107 0;
#X connect 141 0 105 0;
#X connect 142 0 143 0;
#X connect 143 0 49 16;
#X connect 144 0 87 0;
#X connect 145 0 144 0;
#X connect 146 0 140 0;
#X connect 146 0 191 0;
#X connect 147 0 148 0;
#X connect 148 0 88 0;
#X connect 150 0 89 0;
#X connect 151 0 90 0;
#X connect 152 0 91 0;
#X connect 153 0 92 0;
#X connect 154 0 93 0;
#X connect 155 0 94 0;
#X connect 156 0 95 0;
#X connect 157 0 96 0;
#X connect 158 0 97 0;
#X connect 159 0 98 0;
#X connect 160 0 99 0;
#X connect 161 0 100 0;
#X connect 162 0 101 0;
#X connect 163 0 102 0;
#X connect 164 0 103 0;
#X connect 165 0 150 0;
#X connect 166 0 151 0;
#X connect 167 0 152 0;
#X connect 168 0 153 0;
#X connect 169 0 154 0;
#X connect 170 0 155 0;
#X connect 171 0 156 0;
#X connect 172 0 157 0;
#X connect 173 0 158 0;
#X connect 174 0 159 0;
#X connect 175 0 160 0;
#X connect 176 0 161 0;
#X connect 177 0 162 0;
#X connect 178 0 163 0;
#X connect 179 0 164 0;
#X connect 180 0 147 0;
#X connect 180 0 165 0;
#X connect 180 0 166 0;
#X connect 180 0 167 0;
#X connect 180 0 168 0;
#X connect 180 0 169 0;
#X connect 180 0 170 0;
#X connect 180 0 171 0;
#X connect 180 0 172 0;
#X connect 180 0 173 0;
#X connect 180 0 174 0;
#X connect 180 0 175 0;
#X connect 180 0 176 0;
#X connect 180 0 177 0;
#X connect 180 0 178 0;
#X connect 180 0 179 0;
#X connect 180 0 182 0;
#X connect 181 0 180 0;
#X connect 182 0 141 0;
#X connect 192 0 146 0;
#X connect 192 0 50 0;
#X connect 193 0 52 0;
#X connect 194 0 199 0;
#X connect 195 0 197 0;
#X connect 196 0 198 0;
#X connect 200 0 201 0;
#X coords 0 -1 1 1 240 90 2 100 100;
#X restore 121 425 pd pattern;
#X obj 538 146 spigot;
#X obj 623 131 tgl 15 0 empty empty empty 17 7 0 10 -262144 -1 -1 1
1;
#X obj 538 85 del 10;
#N canvas 0 50 450 300 resomonitor 0;
#X obj 103 140 hsl 235 10 0 127 0 0 empty empty empty -2 -8 0 10 -258113
-260097 -1 21373 0;
#N canvas 0 50 450 250 (subpatch) 0;
#X array array2 128 float 3;
#A 0 50 50 50 50 50 75 75 75 100 100 125 150 150 150 162.5 175 200
225 225 225 225 225 225 225 225 225 225 225 225 225 225 225 250 275
275 275 275 275 275 275 275 300 300 300 300 300 300 325 325 325 325
325 325 325 325 325 337.5 350 350 350 375 375 375 400 400 425 450 450
450 462.5 475 475 500 500 500 525 525 525 525 525 537.5 550 550 575
575 600 600 600 625 625 625 650 662.5 700 700 716.667 733.333 750 750
750 750 775 775 775 775 825 825 825 850 850 850 850 850 850 875 875
875 850 800 750 725 675 650 550 500 325 275 75;
#X coords 0 1000 128 0 240 40 1 0 0;
#X restore 100 100 graph;
#X obj 100 53 r Rndx;
#X connect 2 0 0 0;
#X coords 0 -1 1 1 240 50 2 100 100;
#X restore 121 140 pd resomonitor;
#X obj 590 31 bng 15 250 50 0 empty start empty 17 7 0 10 -4034 -1
-1;
#X msg 590 55 1;
#N canvas 378 81 450 557 strumenti 0;
#X obj 168 482 metro 100;
#X obj 168 459 tgl 15 0 empty start empty 17 7 0 10 -4034 -1 -1 1 1
;
#X obj 168 505 tabwrite~ array1;
#X obj 44 183 *~ 2;
#X obj 44 205 -~ 1;
#X obj 44 275 *~;
#X obj 109 259 line~;
#X obj 157 133 del 5;
#X obj 157 100 bng 15 250 50 0 empty empty empty 17 7 0 10 -262144
-1 -1;
#X obj 44 161 phasor~;
#X obj 44 133 sig~;
#X obj 44 108 mtof;
#X floatatom 44 86 5 0 0 0 - - -, f 5;
#X obj 44 447 *~ 1;
#X msg 157 232 \$1 \$2;
#X obj 157 207 pack f f;
#X obj 157 157 bng 15 250 50 0 empty empty empty 17 7 0 10 -262144
-1 -1;
#X msg 157 183 0;
#X obj 210 130 bng 15 250 50 0 empty start empty 17 7 0 10 -4034 -1
-1;
#X obj 92 295 hsl 100 15 0 500 0 0 empty empty empty -2 -8 0 10 -4160
-4032 -1 0 1;
#X floatatom 101 317 10 0 0 0 - - -, f 10;
#X obj 213 186 hsl 100 15 0 1000 0 0 empty empty empty -2 -8 0 10 -260097
-258113 -1 2424 1;
#X obj 310 254 r kick;
#X obj 232 383 osc~;
#X obj 232 359 line~;
#X obj 233 408 *~;
#X obj 310 391 line~;
#X obj 348 339 del 5;
#X obj 310 301 bng 15 250 50 0 empty empty empty 17 7 0 10 -262144
-1 -1;
#X obj 310 276 sel 1;
#X obj 44 -8 r nota;
#X msg 109 232 0.25 5;
#X floatatom 238 211 5 0 0 0 - - -, f 5;
#X msg 232 335 200 \, 20 30;
#X msg 348 364 0 50;
#X msg 310 364 1 2;
#X obj 43 317 hip~ 10;
#N canvas 0 50 450 300 filtro 0;
#X obj 148 150 vcf~;
#X floatatom 160 47 5 0 0 0 - - -, f 5;
#X floatatom 173 126 5 0 0 1 Q - -, f 5;
#X obj 160 88 sig~;
#X obj 148 180 *~ 1;
#X obj 160 66 * 10;
#X obj 148 19 inlet~;
#X obj 147 209 outlet~;
#X obj 224 30 inlet;
#X obj 234 109 inlet;
#X connect 0 0 4 0;
#X connect 0 1 4 0;
#X connect 1 0 5 0;
#X connect 2 0 0 2;
#X connect 3 0 0 1;
#X connect 4 0 7 0;
#X connect 5 0 3 0;
#X connect 6 0 0 0;
#X connect 8 0 1 0;
#X connect 9 0 2 0;
#X restore 42 369 pd filtro vcf;
#X obj 89 336 hsl 50 8 0 1000 0 0 empty Cfrq empty -2 -8 0 10 -4032
-260097 -1 4287 1;
#X obj 133 356 hsl 25 8 1 100 0 0 empty Qfrq Q -2 -8 0 10 -260097 -4032
-1 1188 1;
#X obj 42 392 *~ 10;
#X floatatom 142 372 5 0 0 0 - - -, f 5;
#X obj 186 10 notein 1;
#X obj 186 34 makenote;
#X obj 62 15 r ottava;
#X obj 44 59 +;
#X obj 62 37 - 24;
#X obj 43 415 clip~ -0.5 0.5;
#X obj 234 431 clip~ -1 1;
#X obj 210 159 r Release;
#X obj 44 471 clip~ -0.75 0.75;
#X obj 43 506 outlet~;
#X connect 0 0 2 0;
#X connect 1 0 0 0;
#X connect 3 0 4 0;
#X connect 4 0 5 0;
#X connect 5 0 36 0;
#X connect 6 0 5 1;
#X connect 7 0 16 0;
#X connect 8 0 7 0;
#X connect 8 0 31 0;
#X connect 9 0 3 0;
#X connect 10 0 9 0;
#X connect 11 0 10 0;
#X connect 12 0 11 0;
#X connect 12 0 8 0;
#X connect 13 0 50 0;
#X connect 14 0 6 0;
#X connect 15 0 14 0;
#X connect 16 0 17 0;
#X connect 16 0 21 0;
#X connect 17 0 15 0;
#X connect 18 0 17 0;
#X connect 19 0 20 0;
#X connect 19 0 36 1;
#X connect 21 0 15 1;
#X connect 21 0 32 0;
#X connect 22 0 29 0;
#X connect 23 0 25 0;
#X connect 24 0 23 0;
#X connect 25 0 48 0;
#X connect 26 0 25 1;
#X connect 27 0 34 0;
#X connect 28 0 33 0;
#X connect 28 0 35 0;
#X connect 28 0 27 0;
#X connect 29 0 28 0;
#X connect 30 0 45 0;
#X connect 31 0 6 0;
#X connect 33 0 24 0;
#X connect 34 0 26 0;
#X connect 35 0 26 0;
#X connect 36 0 37 0;
#X connect 37 0 40 0;
#X connect 38 0 37 1;
#X connect 39 0 37 2;
#X connect 39 0 41 0;
#X connect 40 0 47 0;
#X connect 42 0 43 0;
#X connect 42 1 43 1;
#X connect 44 0 46 0;
#X connect 45 0 12 0;
#X connect 46 0 45 1;
#X connect 47 0 13 0;
#X connect 48 0 13 0;
#X connect 49 0 21 0;
#X connect 50 0 2 0;
#X connect 50 0 51 0;
#X restore 755 198 pd strumenti;
#X obj 122 69 knob 32 32 0 127 0 0 empty empty empty 0 -8 0 8 -262144
-1 -1 0 1;
#X floatatom 122 109 5 0 0 0 - - -, f 5;
#N canvas 610 52 450 300 controllo 0;
#N canvas 0 50 992 544 notesender 0;
#X floatatom 688 375 5 0 0 0 - - -, f 5;
#X obj 688 416 abs;
#X obj 764 410 sel 1;
#X obj 764 389 != 0;
#X obj 688 438 + 36;
#X obj 688 509 s nota;
#X floatatom 688 491 5 0 0 0 - - -, f 5;
#X obj 764 454 bng 15 250 50 0 empty empty empty 17 7 0 10 -262144
-1 -1;
#X obj 688 394 - 13;
#X obj 688 469 v $nota;
#X obj 764 432 del 15;
#X obj 167 53 r ndx;
#X obj 167 79 route 0 1 2 3 4 5 6 7 8 9 10 11 12 13 14 15;
#N canvas 332 81 450 300 cL 0;
#X obj 128 228 spigot;
#X obj 167 193 tgl 15 0 empty empty empty 17 7 0 10 -262144 -1 -1 0
1;
#X msg 185 164 0;
#X obj 126 176 del 1;
#X obj 78 176 r s1-1;
#X obj 126 205 s 1-1;
#X obj 128 256 outlet;
#X obj 185 108 inlet;
#X obj 167 80 inlet;
#X connect 0 0 6 0;
#X connect 1 0 0 1;
#X connect 2 0 1 0;
#X connect 3 0 5 0;
#X connect 4 0 0 0;
#X connect 7 0 2 0;
#X connect 8 0 1 0;
#X connect 8 0 3 0;
#X restore 59 228 pd cL;
#N canvas 332 81 450 300 cL 0;
#X obj 128 228 spigot;
#X obj 167 193 tgl 15 0 empty empty empty 17 7 0 10 -262144 -1 -1 0
1;
#X msg 185 164 0;
#X obj 126 176 del 1;
#X obj 128 256 outlet;
#X obj 185 108 inlet;
#X obj 167 80 inlet;
#X obj 78 176 r s1-2;
#X obj 126 205 s 1-2;
#X connect 0 0 4 0;
#X connect 1 0 0 1;
#X connect 2 0 1 0;
#X connect 3 0 8 0;
#X connect 5 0 2 0;
#X connect 6 0 1 0;
#X connect 6 0 3 0;
#X connect 7 0 0 0;
#X restore 109 228 pd cL;
#N canvas 332 81 450 300 cL 0;
#X obj 128 228 spigot;
#X obj 167 193 tgl 15 0 empty empty empty 17 7 0 10 -262144 -1 -1 0
1;
#X msg 185 164 0;
#X obj 126 176 del 1;
#X obj 128 256 outlet;
#X obj 185 108 inlet;
#X obj 167 80 inlet;
#X obj 78 176 r s1-3;
#X obj 126 205 s 1-3;
#X connect 0 0 4 0;
#X connect 1 0 0 1;
#X connect 2 0 1 0;
#X connect 3 0 8 0;
#X connect 5 0 2 0;
#X connect 6 0 1 0;
#X connect 6 0 3 0;
#X connect 7 0 0 0;
#X restore 159 228 pd cL;
#N canvas 332 81 450 300 cL 0;
#X obj 128 228 spigot;
#X obj 167 193 tgl 15 0 empty empty empty 17 7 0 10 -262144 -1 -1 0
1;
#X msg 185 164 0;
#X obj 126 176 del 1;
#X obj 128 256 outlet;
#X obj 185 108 inlet;
#X obj 167 80 inlet;
#X obj 78 176 r s1-4;
#X obj 126 205 s 1-4;
#X connect 0 0 4 0;
#X connect 1 0 0 1;
#X connect 2 0 1 0;
#X connect 3 0 8 0;
#X connect 5 0 2 0;
#X connect 6 0 1 0;
#X connect 6 0 3 0;
#X connect 7 0 0 0;
#X restore 209 228 pd cL;
#N canvas 332 81 450 300 cL 0;
#X obj 128 228 spigot;
#X obj 167 193 tgl 15 0 empty empty empty 17 7 0 10 -262144 -1 -1 1
1;
#X msg 185 164 0;
#X obj 126 176 del 1;
#X obj 128 256 outlet;
#X obj 185 108 inlet;
#X obj 167 80 inlet;
#X obj 78 176 r s2-1;
#X obj 126 205 s 2-1;
#X connect 0 0 4 0;
#X connect 1 0 0 1;
#X connect 2 0 1 0;
#X connect 3 0 8 0;
#X connect 5 0 2 0;
#X connect 6 0 1 0;
#X connect 6 0 3 0;
#X connect 7 0 0 0;
#X restore 279 228 pd cL;
#N canvas 332 81 450 300 cL 0;
#X obj 128 228 spigot;
#X obj 167 193 tgl 15 0 empty empty empty 17 7 0 10 -262144 -1 -1 0
1;
#X msg 185 164 0;
#X obj 126 176 del 1;
#X obj 128 256 outlet;
#X obj 185 108 inlet;
#X obj 167 80 inlet;
#X obj 78 176 r s2-2;
#X obj 126 205 s 2-2;
#X connect 0 0 4 0;
#X connect 1 0 0 1;
#X connect 2 0 1 0;
#X connect 3 0 8 0;
#X connect 5 0 2 0;
#X connect 6 0 1 0;
#X connect 6 0 3 0;
#X connect 7 0 0 0;
#X restore 329 228 pd cL;
#N canvas 332 81 450 300 cL 0;
#X obj 128 228 spigot;
#X obj 167 193 tgl 15 0 empty empty empty 17 7 0 10 -262144 -1 -1 0
1;
#X msg 185 164 0;
#X obj 126 176 del 1;
#X obj 128 256 outlet;
#X obj 185 108 inlet;
#X obj 167 80 inlet;
#X obj 78 176 r s2-3;
#X obj 126 205 s 2-3;
#X connect 0 0 4 0;
#X connect 1 0 0 1;
#X connect 2 0 1 0;
#X connect 3 0 8 0;
#X connect 5 0 2 0;
#X connect 6 0 1 0;
#X connect 6 0 3 0;
#X connect 7 0 0 0;
#X restore 379 228 pd cL;
#N canvas 332 81 450 300 cL 0;
#X obj 128 228 spigot;
#X obj 167 193 tgl 15 0 empty empty empty 17 7 0 10 -262144 -1 -1 0
1;
#X msg 185 164 0;
#X obj 126 176 del 1;
#X obj 128 256 outlet;
#X obj 185 108 inlet;
#X obj 167 80 inlet;
#X obj 78 176 r s2-4;
#X obj 126 205 s 2-4;
#X connect 0 0 4 0;
#X connect 1 0 0 1;
#X connect 2 0 1 0;
#X connect 3 0 8 0;
#X connect 5 0 2 0;
#X connect 6 0 1 0;
#X connect 6 0 3 0;
#X connect 7 0 0 0;
#X restore 429 228 pd cL;
#N canvas 332 81 450 300 cL 0;
#X obj 128 228 spigot;
#X obj 167 193 tgl 15 0 empty empty empty 17 7 0 10 -262144 -1 -1 0
1;
#X msg 185 164 0;
#X obj 126 176 del 1;
#X obj 128 256 outlet;
#X obj 185 108 inlet;
#X obj 167 80 inlet;
#X obj 78 176 r s3-1;
#X obj 126 205 s 3-1;
#X connect 0 0 4 0;
#X connect 1 0 0 1;
#X connect 2 0 1 0;
#X connect 3 0 8 0;
#X connect 5 0 2 0;
#X connect 6 0 1 0;
#X connect 6 0 3 0;
#X connect 7 0 0 0;
#X restore 499 228 pd cL;
#N canvas 332 81 450 300 cL 0;
#X obj 128 228 spigot;
#X obj 167 193 tgl 15 0 empty empty empty 17 7 0 10 -262144 -1 -1 0
1;
#X msg 185 164 0;
#X obj 126 176 del 1;
#X obj 128 256 outlet;
#X obj 185 108 inlet;
#X obj 167 80 inlet;
#X obj 78 176 r s3-2;
#X obj 126 205 s 3-2;
#X connect 0 0 4 0;
#X connect 1 0 0 1;
#X connect 2 0 1 0;
#X connect 3 0 8 0;
#X connect 5 0 2 0;
#X connect 6 0 1 0;
#X connect 6 0 3 0;
#X connect 7 0 0 0;
#X restore 549 228 pd cL;
#N canvas 332 81 450 300 cL 0;
#X obj 128 228 spigot;
#X obj 167 193 tgl 15 0 empty empty empty 17 7 0 10 -262144 -1 -1 0
1;
#X msg 185 164 0;
#X obj 126 176 del 1;
#X obj 128 256 outlet;
#X obj 185 108 inlet;
#X obj 167 80 inlet;
#X obj 78 176 r s3-3;
#X obj 126 205 s 3-3;
#X connect 0 0 4 0;
#X connect 1 0 0 1;
#X connect 2 0 1 0;
#X connect 3 0 8 0;
#X connect 5 0 2 0;
#X connect 6 0 1 0;
#X connect 6 0 3 0;
#X connect 7 0 0 0;
#X restore 599 228 pd cL;
#N canvas 332 81 450 300 cL 0;
#X obj 128 228 spigot;
#X obj 167 193 tgl 15 0 empty empty empty 17 7 0 10 -262144 -1 -1 0
1;
#X msg 185 164 0;
#X obj 126 176 del 1;
#X obj 128 256 outlet;
#X obj 185 108 inlet;
#X obj 167 80 inlet;
#X obj 78 176 r s3-4;
#X obj 126 205 s 3-4;
#X connect 0 0 4 0;
#X connect 1 0 0 1;
#X connect 2 0 1 0;
#X connect 3 0 8 0;
#X connect 5 0 2 0;
#X connect 6 0 1 0;
#X connect 6 0 3 0;
#X connect 7 0 0 0;
#X restore 649 228 pd cL;
#N canvas 332 81 450 300 cL 0;
#X obj 128 228 spigot;
#X obj 167 193 tgl 15 0 empty empty empty 17 7 0 10 -262144 -1 -1 0
1;
#X msg 185 164 0;
#X obj 126 176 del 1;
#X obj 128 256 outlet;
#X obj 185 108 inlet;
#X obj 167 80 inlet;
#X obj 78 176 r s4-1;
#X obj 126 205 s 4-1;
#X connect 0 0 4 0;
#X connect 1 0 0 1;
#X connect 2 0 1 0;
#X connect 3 0 8 0;
#X connect 5 0 2 0;
#X connect 6 0 1 0;
#X connect 6 0 3 0;
#X connect 7 0 0 0;
#X restore 719 228 pd cL;
#N canvas 332 81 450 300 cL 0;
#X obj 128 228 spigot;
#X obj 167 193 tgl 15 0 empty empty empty 17 7 0 10 -262144 -1 -1 0
1;
#X msg 185 164 0;
#X obj 126 176 del 1;
#X obj 128 256 outlet;
#X obj 185 108 inlet;
#X obj 167 80 inlet;
#X obj 78 176 r s4-2;
#X obj 126 205 s 4-2;
#X connect 0 0 4 0;
#X connect 1 0 0 1;
#X connect 2 0 1 0;
#X connect 3 0 8 0;
#X connect 5 0 2 0;
#X connect 6 0 1 0;
#X connect 6 0 3 0;
#X connect 7 0 0 0;
#X restore 769 228 pd cL;
#N canvas 332 81 450 300 cL 0;
#X obj 128 228 spigot;
#X obj 167 193 tgl 15 0 empty empty empty 17 7 0 10 -262144 -1 -1 0
1;
#X msg 185 164 0;
#X obj 126 176 del 1;
#X obj 128 256 outlet;
#X obj 185 108 inlet;
#X obj 167 80 inlet;
#X obj 78 176 r s4-3;
#X obj 126 205 s 4-3;
#X connect 0 0 4 0;
#X connect 1 0 0 1;
#X connect 2 0 1 0;
#X connect 3 0 8 0;
#X connect 5 0 2 0;
#X connect 6 0 1 0;
#X connect 6 0 3 0;
#X connect 7 0 0 0;
#X restore 819 228 pd cL;
#N canvas 332 81 450 300 cL 0;
#X obj 128 228 spigot;
#X obj 167 193 tgl 15 0 empty empty empty 17 7 0 10 -262144 -1 -1 0
1;
#X msg 185 164 0;
#X obj 126 176 del 1;
#X obj 128 256 outlet;
#X obj 185 108 inlet;
#X obj 167 80 inlet;
#X obj 78 176 r s4-4;
#X obj 126 205 s 4-4;
#X connect 0 0 4 0;
#X connect 1 0 0 1;
#X connect 2 0 1 0;
#X connect 3 0 8 0;
#X connect 5 0 2 0;
#X connect 6 0 1 0;
#X connect 6 0 3 0;
#X connect 7 0 0 0;
#X restore 869 228 pd cL;
#X obj -343 -19 bng 15 250 50 0 empty Save empty 17 7 0 10 -262144
-1 -1;
#X obj -283 -19 bng 15 250 50 0 empty Save empty 17 7 0 10 -262144
-1 -1;
#X obj -283 -79 bng 15 250 50 0 empty Save empty 17 7 0 10 -262144
-1 -1;
#X obj -283 -79 bng 15 250 50 0 empty Save empty 17 7 0 10 -262144
-1 -1;
#X connect 0 0 3 0;
#X connect 0 0 8 0;
#X connect 1 0 4 0;
#X connect 2 0 10 0;
#X connect 3 0 2 0;
#X connect 4 0 9 0;
#X connect 6 0 5 0;
#X connect 7 0 9 0;
#X connect 8 0 1 0;
#X connect 9 0 6 0;
#X connect 10 0 7 0;
#X connect 11 0 12 0;
#X connect 12 0 13 0;
#X connect 12 0 28 1;
#X connect 12 1 13 1;
#X connect 12 1 14 0;
#X connect 12 2 14 1;
#X connect 12 2 15 0;
#X connect 12 3 15 1;
#X connect 12 3 16 0;
#X connect 12 4 16 1;
#X connect 12 4 17 0;
#X connect 12 5 17 1;
#X connect 12 5 18 0;
#X connect 12 6 18 1;
#X connect 12 6 19 0;
#X connect 12 7 19 1;
#X connect 12 7 20 0;
#X connect 12 8 20 1;
#X connect 12 8 21 0;
#X connect 12 9 21 1;
#X connect 12 9 22 0;
#X connect 12 10 22 1;
#X connect 12 10 23 0;
#X connect 12 11 23 1;
#X connect 12 11 24 0;
#X connect 12 12 24 1;
#X connect 12 12 25 0;
#X connect 12 13 25 1;
#X connect 12 13 26 0;
#X connect 12 14 26 1;
#X connect 12 14 27 0;
#X connect 12 15 27 1;
#X connect 12 15 28 0;
#X connect 13 0 0 0;
#X connect 14 0 0 0;
#X connect 15 0 0 0;
#X connect 16 0 0 0;
#X connect 17 0 0 0;
#X connect 18 0 0 0;
#X connect 19 0 0 0;
#X connect 20 0 0 0;
#X connect 21 0 0 0;
#X connect 22 0 0 0;
#X connect 23 0 0 0;
#X connect 24 0 0 0;
#X connect 25 0 0 0;
#X connect 26 0 0 0;
#X connect 27 0 0 0;
#X connect 28 0 0 0;
#X restore 153 198 pd notesender;
#X obj 237 72 tabread array2;
#X obj 237 -1 bng 15 250 50 0 empty clearBeam empty 17 7 0 10 -262144
-1 -1;
#X floatatom 237 93 5 0 0 0 - - -, f 5;
#X obj 243 144 s Cfrq;
#X obj 184 136 s Rndx;
#N canvas 0 50 450 300 contatoreX128 0;
#X msg 203 94 1;
#X obj 203 116 + 1;
#X floatatom 203 138 5 0 0 0 - - -, f 5;
#X obj 203 75 bng 15 250 50 0 empty empty empty 17 7 0 10 -262144 -1
-1;
#X obj 203 179 sel 1;
#X msg 203 201 0;
#X obj 169 171 - 1;
#X obj 169 234 outlet;
#X obj 203 50 inlet;
#X obj 203 157 == 127;
#X connect 0 0 1 0;
#X connect 1 0 2 0;
#X connect 2 0 1 1;
#X connect 2 0 6 0;
#X connect 2 0 9 0;
#X connect 3 0 0 0;
#X connect 4 0 5 0;
#X connect 5 0 1 1;
#X connect 6 0 7 0;
#X connect 8 0 3 0;
#X connect 9 0 4 0;
#X restore 237 21 pd contatoreX128;
#X obj 36 65 metro 125;
#X obj 36 109 s ndx;
#N canvas 637 68 450 300 contatoreX16 0;
#X msg 203 94 1;
#X obj 203 116 + 1;
#X floatatom 203 138 5 0 0 0 - - -, f 5;
#X obj 203 75 bng 15 250 50 0 empty empty empty 17 7 0 10 -262144 -1
-1;
#X obj 203 179 sel 1;
#X msg 203 201 0;
#X obj 169 171 - 1;
#X obj 169 234 outlet;
#X obj 203 50 inlet;
#X obj 203 157 == 16;
#X connect 0 0 1 0;
#X connect 1 0 2 0;
#X connect 2 0 1 1;
#X connect 2 0 6 0;
#X connect 2 0 9 0;
#X connect 3 0 0 0;
#X connect 4 0 5 0;
#X connect 5 0 1 1;
#X connect 6 0 7 0;
#X connect 8 0 3 0;
#X connect 9 0 4 0;
#X restore 36 87 pd contatoreX16;
#X obj 11 55 bng 15 250 50 0 empty empty empty 17 7 0 10 -262144 -1
-1;
#X obj 17 92 bng 15 250 50 0 clearBeam empty empty 17 7 0 10 -262144
-1 -1;
#N canvas 0 50 450 351 basspattern 0;
#X floatatom 147 81 5 0 0 0 - - -, f 5;
#X obj 147 122 sel 1;
#X obj 147 12 r ndx;
#N canvas 0 50 450 300 contatoreX4 0;
#X msg 203 94 1;
#X obj 203 116 + 1;
#X floatatom 203 138 5 0 0 0 - - -, f 5;
#X obj 203 75 bng 15 250 50 0 empty empty empty 17 7 0 10 -262144 -1
-1;
#X obj 203 179 sel 1;
#X msg 203 201 0;
#X obj 169 234 outlet;
#X obj 203 50 inlet;
#X obj 203 157 == 4;
#X msg 169 137 1;
#X obj 169 111 bng 15 250 50 0 empty start empty 17 7 0 10 -4034 -1
-1;
#X connect 0 0 1 0;
#X connect 1 0 2 0;
#X connect 2 0 1 1;
#X connect 2 0 6 0;
#X connect 2 0 8 0;
#X connect 3 0 0 0;
#X connect 4 0 5 0;
#X connect 5 0 1 1;
#X connect 7 0 3 0;
#X connect 8 0 4 0;
#X connect 9 0 6 0;
#X connect 10 0 9 0;
#X restore 147 216 pd contatoreX4;
#X obj 147 191 sel 1;
#X obj 147 169 == 1;
#X obj 147 100 == 0;
#X obj 147 55 spigot;
#X obj 186 33 tgl 15 0 empty start empty 17 7 0 10 -4034 -1 -1 1 1
;
#X obj 147 261 hradio 15 1 0 4 empty empty empty 0 -8 0 10 -159808
-232576 -1 0;
#X obj 218 249 spigot;
#X obj 257 230 tgl 15 0 empty start empty 17 7 0 10 -4034 -1 -1 1 1
;
#X obj 218 276 bng 15 250 50 0 empty empty empty 17 7 0 10 -262144
-1 -1;
#X obj 104 276 + 1;
#X obj 147 239 - 1;
#N canvas 0 50 450 300 contatoreX8 0;
#X msg 203 94 1;
#X obj 203 116 + 1;
#X floatatom 203 138 5 0 0 0 - - -, f 5;
#X obj 203 75 bng 15 250 50 0 empty empty empty 17 7 0 10 -262144 -1
-1;
#X obj 203 179 sel 1;
#X msg 203 201 0;
#X obj 169 234 outlet;
#X obj 203 50 inlet;
#X obj 203 157 == 8;
#X connect 0 0 1 0;
#X connect 1 0 2 0;
#X connect 2 0 1 1;
#X connect 2 0 6 0;
#X connect 2 0 8 0;
#X connect 3 0 0 0;
#X connect 4 0 5 0;
#X connect 5 0 1 1;
#X connect 7 0 3 0;
#X connect 8 0 4 0;
#X restore 147 144 pd contatoreX8;
#X obj 104 300 s patcmd1;
#X obj 217 298 s patcmd2;
#X obj 74 244 r patcmd0;
#X obj 186 -15 r bloop0-1;
#X obj 257 205 r bloop0-2;
#X connect 0 0 6 0;
#X connect 1 0 15 0;
#X connect 2 0 7 0;
#X connect 3 0 14 0;
#X connect 4 0 3 0;
#X connect 5 0 4 0;
#X connect 6 0 1 0;
#X connect 7 0 0 0;
#X connect 8 0 7 1;
#X connect 9 0 12 0;
#X connect 9 0 13 0;
#X connect 10 0 17 0;
#X connect 11 0 10 1;
#X connect 12 0 10 0;
#X connect 13 0 16 0;
#X connect 14 0 9 0;
#X connect 15 0 5 0;
#X connect 18 0 9 0;
#X connect 19 0 8 0;
#X connect 20 0 11 0;
#X restore 44 198 pd basspattern;
#X obj 36 34 inlet;
#X obj 96 34 inlet;
#X obj 276 97 inlet;
#X obj 237 120 spigot;
#X obj 184 114 spigot;
#X obj 355 185 r Cfrq2;
#X obj 355 216 spigot;
#X obj 414 201 tgl 15 0 empty empty empty 17 7 0 10 -262144 -1 -1 0
1;
#X obj 298 136 expr $f1 \; if ($f1==0 \, 1 \, 0);
#X obj 355 246 s Cfrq;
#X obj 237 167 s Cfrqx;
#X connect 1 0 3 0;
#X connect 2 0 6 0;
#X connect 3 0 16 0;
#X connect 6 0 1 0;
#X connect 6 0 17 0;
#X connect 7 0 9 0;
#X connect 7 0 11 0;
#X connect 9 0 8 0;
#X connect 10 0 9 0;
#X connect 13 0 7 0;
#X connect 14 0 7 1;
#X connect 15 0 16 1;
#X connect 15 0 17 1;
#X connect 15 0 21 0;
#X connect 16 0 4 0;
#X connect 16 0 23 0;
#X connect 17 0 5 0;
#X connect 18 0 19 0;
#X connect 19 0 22 0;
#X connect 20 0 19 1;
#X connect 21 1 20 0;
#X restore 726 485 pd controllo;
#N canvas 481 170 450 300 init 0;
#X obj 155 8 loadbang;
#X msg 162 30 \; pd dsp 1;
#X obj 155 64 bng 15 250 50 0 start empty init 17 7 0 10 -4034 -1 -1
;
#N canvas 0 50 450 300 colorazione 0;
#N canvas 0 50 450 300 colori 0;
#X obj 40 77 inlet;
#X obj 40 102 bng 15 250 50 0 empty empty empty 17 7 0 10 -262144 -1
-1;
#X obj 80 144 t b a;
#X obj 40 173 pack 0 0 0;
#X msg 40 195 color \$1 \$2 \$3;
#X obj 150 102 bng 15 250 50 0 empty empty empty 17 7 0 10 -262144
-1 -1;
#X obj 190 144 t b a;
#X obj 150 173 pack 0 0 0;
#X msg 150 195 color \$1 \$2 \$3;
#X obj 260 102 bng 15 250 50 0 empty empty empty 17 7 0 10 -262144
-1 -1;
#X obj 300 144 t b a;
#X obj 260 173 pack 0 0 0;
#X msg 260 195 color \$1 \$2 \$3;
#X msg 40 122 13;
#X msg 80 122 14;
#X msg 150 122 14;
#X msg 190 122 13;
#X msg 300 122 13;
#X obj 40 217 s 4-1;
#X obj 260 217 s 4-1;
#X obj 150 217 s 3-4;
#X obj 260 77 r time;
#X msg 260 122 24;
#X connect 0 0 1 0;
#X connect 1 0 13 0;
#X connect 1 0 14 0;
#X connect 1 0 5 0;
#X connect 2 0 3 0;
#X connect 2 1 3 1;
#X connect 3 0 4 0;
#X connect 4 0 18 0;
#X connect 5 0 15 0;
#X connect 5 0 16 0;
#X connect 6 0 7 0;
#X connect 6 1 7 1;
#X connect 7 0 8 0;
#X connect 8 0 20 0;
#X connect 9 0 22 0;
#X connect 9 0 17 0;
#X connect 10 0 11 0;
#X connect 10 1 11 1;
#X connect 11 0 12 0;
#X connect 12 0 19 0;
#X connect 13 0 3 0;
#X connect 14 0 2 0;
#X connect 15 0 7 0;
#X connect 16 0 6 0;
#X connect 17 0 10 0;
#X connect 21 0 9 0;
#X connect 22 0 11 0;
#X restore 271 112 pd colori;
#N canvas 0 50 450 300 colori 0;
#X obj 40 77 inlet;
#X obj 40 102 bng 15 250 50 0 empty empty empty 17 7 0 10 -262144 -1
-1;
#X obj 80 144 t b a;
#X obj 40 173 pack 0 0 0;
#X msg 40 195 color \$1 \$2 \$3;
#X obj 150 102 bng 15 250 50 0 empty empty empty 17 7 0 10 -262144
-1 -1;
#X obj 190 144 t b a;
#X obj 150 173 pack 0 0 0;
#X msg 150 195 color \$1 \$2 \$3;
#X obj 260 102 bng 15 250 50 0 empty empty empty 17 7 0 10 -262144
-1 -1;
#X obj 300 144 t b a;
#X obj 260 173 pack 0 0 0;
#X msg 260 195 color \$1 \$2 \$3;
#X msg 40 122 13;
#X msg 80 122 14;
#X msg 190 122 13;
#X msg 260 122 14;
#X msg 300 122 13;
#X obj 260 77 r time;
#X obj 40 216 s 4-2;
#X obj 150 217 s 4-1;
#X obj 260 217 s 4-2;
#X msg 150 122 24;
#X connect 0 0 1 0;
#X connect 1 0 13 0;
#X connect 1 0 14 0;
#X connect 1 0 5 0;
#X connect 2 0 3 0;
#X connect 2 1 3 1;
#X connect 3 0 4 0;
#X connect 4 0 19 0;
#X connect 5 0 22 0;
#X connect 5 0 15 0;
#X connect 6 0 7 0;
#X connect 6 1 7 1;
#X connect 7 0 8 0;
#X connect 8 0 20 0;
#X connect 9 0 16 0;
#X connect 9 0 17 0;
#X connect 10 0 11 0;
#X connect 10 1 11 1;
#X connect 11 0 12 0;
#X connect 12 0 21 0;
#X connect 13 0 3 0;
#X connect 14 0 2 0;
#X connect 15 0 6 0;
#X connect 16 0 11 0;
#X connect 17 0 10 0;
#X connect 18 0 9 0;
#X connect 22 0 7 0;
#X restore 271 132 pd colori;
#N canvas 0 50 450 300 colori 0;
#X obj 40 77 inlet;
#X obj 40 102 bng 15 250 50 0 empty empty empty 17 7 0 10 -262144 -1
-1;
#X obj 80 144 t b a;
#X obj 40 173 pack 0 0 0;
#X msg 40 195 color \$1 \$2 \$3;
#X obj 150 102 bng 15 250 50 0 empty empty empty 17 7 0 10 -262144
-1 -1;
#X obj 190 144 t b a;
#X obj 150 173 pack 0 0 0;
#X msg 150 195 color \$1 \$2 \$3;
#X obj 260 102 bng 15 250 50 0 empty empty empty 17 7 0 10 -262144
-1 -1;
#X obj 300 144 t b a;
#X obj 260 173 pack 0 0 0;
#X msg 260 195 color \$1 \$2 \$3;
#X msg 40 122 13;
#X msg 80 122 14;
#X msg 150 122 14;
#X msg 190 122 13;
#X msg 260 122 14;
#X msg 300 122 13;
#X obj 260 77 r time;
#X obj 40 217 s 4-3;
#X obj 150 217 s 4-2;
#X obj 260 217 s 4-3;
#X connect 0 0 1 0;
#X connect 1 0 13 0;
#X connect 1 0 14 0;
#X connect 1 0 5 0;
#X connect 2 0 3 0;
#X connect 2 1 3 1;
#X connect 3 0 4 0;
#X connect 4 0 20 0;
#X connect 5 0 15 0;
#X connect 5 0 16 0;
#X connect 6 0 7 0;
#X connect 6 1 7 1;
#X connect 7 0 8 0;
#X connect 8 0 21 0;
#X connect 9 0 17 0;
#X connect 9 0 18 0;
#X connect 10 0 11 0;
#X connect 10 1 11 1;
#X connect 11 0 12 0;
#X connect 12 0 22 0;
#X connect 13 0 3 0;
#X connect 14 0 2 0;
#X connect 15 0 7 0;
#X connect 16 0 6 0;
#X connect 17 0 11 0;
#X connect 18 0 10 0;
#X connect 19 0 9 0;
#X restore 271 152 pd colori;
#N canvas 0 50 450 300 colori 0;
#X obj 40 77 inlet;
#X obj 40 102 bng 15 250 50 0 empty empty empty 17 7 0 10 -262144 -1
-1;
#X obj 80 144 t b a;
#X obj 40 173 pack 0 0 0;
#X msg 40 195 color \$1 \$2 \$3;
#X obj 150 102 bng 15 250 50 0 empty empty empty 17 7 0 10 -262144
-1 -1;
#X obj 190 144 t b a;
#X obj 150 173 pack 0 0 0;
#X msg 150 195 color \$1 \$2 \$3;
#X obj 260 102 bng 15 250 50 0 empty empty empty 17 7 0 10 -262144
-1 -1;
#X obj 300 144 t b a;
#X obj 260 173 pack 0 0 0;
#X msg 260 195 color \$1 \$2 \$3;
#X msg 40 122 13;
#X msg 80 122 14;
#X msg 190 122 13;
#X msg 260 122 14;
#X msg 300 122 13;
#X obj 260 77 r time;
#X obj 40 217 s 4-4;
#X obj 150 217 s 4-3;
#X obj 260 217 s 4-4;
#X msg 150 122 14;
#X connect 0 0 1 0;
#X connect 1 0 13 0;
#X connect 1 0 14 0;
#X connect 1 0 5 0;
#X connect 2 0 3 0;
#X connect 2 1 3 1;
#X connect 3 0 4 0;
#X connect 4 0 19 0;
#X connect 5 0 22 0;
#X connect 5 0 15 0;
#X connect 6 0 7 0;
#X connect 6 1 7 1;
#X connect 7 0 8 0;
#X connect 8 0 20 0;
#X connect 9 0 16 0;
#X connect 9 0 17 0;
#X connect 10 0 11 0;
#X connect 10 1 11 1;
#X connect 11 0 12 0;
#X connect 12 0 21 0;
#X connect 13 0 3 0;
#X connect 14 0 2 0;
#X connect 15 0 6 0;
#X connect 16 0 11 0;
#X connect 17 0 10 0;
#X connect 18 0 9 0;
#X connect 22 0 7 0;
#X restore 271 172 pd colori;
#N canvas 0 50 450 300 colori 0;
#X obj 40 77 inlet;
#X obj 40 102 bng 15 250 50 0 empty empty empty 17 7 0 10 -262144 -1
-1;
#X obj 80 144 t b a;
#X obj 40 173 pack 0 0 0;
#X msg 40 195 color \$1 \$2 \$3;
#X obj 150 102 bng 15 250 50 0 empty empty empty 17 7 0 10 -262144
-1 -1;
#X obj 190 144 t b a;
#X obj 150 173 pack 0 0 0;
#X msg 150 195 color \$1 \$2 \$3;
#X obj 260 102 bng 15 250 50 0 empty empty empty 17 7 0 10 -262144
-1 -1;
#X obj 300 144 t b a;
#X obj 260 173 pack 0 0 0;
#X msg 260 195 color \$1 \$2 \$3;
#X msg 40 122 13;
#X msg 80 122 14;
#X msg 150 122 14;
#X msg 190 122 13;
#X msg 300 122 13;
#X obj 260 77 r time;
#X obj 40 217 s 3-1;
#X obj 150 217 s 2-4;
#X obj 260 217 s 3-1;
#X msg 260 122 24;
#X connect 0 0 1 0;
#X connect 1 0 13 0;
#X connect 1 0 14 0;
#X connect 1 0 5 0;
#X connect 2 0 3 0;
#X connect 2 1 3 1;
#X connect 3 0 4 0;
#X connect 4 0 19 0;
#X connect 5 0 15 0;
#X connect 5 0 16 0;
#X connect 6 0 7 0;
#X connect 6 1 7 1;
#X connect 7 0 8 0;
#X connect 8 0 20 0;
#X connect 9 0 22 0;
#X connect 9 0 17 0;
#X connect 10 0 11 0;
#X connect 10 1 11 1;
#X connect 11 0 12 0;
#X connect 12 0 21 0;
#X connect 13 0 3 0;
#X connect 14 0 2 0;
#X connect 15 0 7 0;
#X connect 16 0 6 0;
#X connect 17 0 10 0;
#X connect 18 0 9 0;
#X connect 22 0 11 0;
#X restore 201 112 pd colori;
#N canvas 0 50 450 300 colori 0;
#X obj 40 77 inlet;
#X obj 40 102 bng 15 250 50 0 empty empty empty 17 7 0 10 -262144 -1
-1;
#X obj 80 144 t b a;
#X obj 40 173 pack 0 0 0;
#X msg 40 195 color \$1 \$2 \$3;
#X obj 150 102 bng 15 250 50 0 empty empty empty 17 7 0 10 -262144
-1 -1;
#X obj 190 144 t b a;
#X obj 150 173 pack 0 0 0;
#X msg 150 195 color \$1 \$2 \$3;
#X obj 260 102 bng 15 250 50 0 empty empty empty 17 7 0 10 -262144
-1 -1;
#X obj 300 144 t b a;
#X obj 260 173 pack 0 0 0;
#X msg 260 195 color \$1 \$2 \$3;
#X msg 40 122 13;
#X msg 80 122 14;
#X msg 190 122 13;
#X msg 260 122 14;
#X msg 300 122 13;
#X obj 260 77 r time;
#X obj 40 216 s 3-2;
#X obj 150 217 s 3-1;
#X obj 260 217 s 3-2;
#X msg 150 122 24;
#X connect 0 0 1 0;
#X connect 1 0 13 0;
#X connect 1 0 14 0;
#X connect 1 0 5 0;
#X connect 2 0 3 0;
#X connect 2 1 3 1;
#X connect 3 0 4 0;
#X connect 4 0 19 0;
#X connect 5 0 22 0;
#X connect 5 0 15 0;
#X connect 6 0 7 0;
#X connect 6 1 7 1;
#X connect 7 0 8 0;
#X connect 8 0 20 0;
#X connect 9 0 16 0;
#X connect 9 0 17 0;
#X connect 10 0 11 0;
#X connect 10 1 11 1;
#X connect 11 0 12 0;
#X connect 12 0 21 0;
#X connect 13 0 3 0;
#X connect 14 0 2 0;
#X connect 15 0 6 0;
#X connect 16 0 11 0;
#X connect 17 0 10 0;
#X connect 18 0 9 0;
#X connect 22 0 7 0;
#X restore 201 132 pd colori;
#N canvas 0 50 450 300 colori 0;
#X obj 40 77 inlet;
#X obj 40 102 bng 15 250 50 0 empty empty empty 17 7 0 10 -262144 -1
-1;
#X obj 80 144 t b a;
#X obj 40 173 pack 0 0 0;
#X msg 40 195 color \$1 \$2 \$3;
#X obj 150 102 bng 15 250 50 0 empty empty empty 17 7 0 10 -262144
-1 -1;
#X obj 190 144 t b a;
#X obj 150 173 pack 0 0 0;
#X msg 150 195 color \$1 \$2 \$3;
#X obj 260 102 bng 15 250 50 0 empty empty empty 17 7 0 10 -262144
-1 -1;
#X obj 300 144 t b a;
#X obj 260 173 pack 0 0 0;
#X msg 260 195 color \$1 \$2 \$3;
#X msg 40 122 13;
#X msg 80 122 14;
#X msg 150 122 14;
#X msg 190 122 13;
#X msg 260 122 14;
#X msg 300 122 13;
#X obj 260 77 r time;
#X obj 40 217 s 3-3;
#X obj 150 217 s 3-2;
#X obj 260 217 s 3-3;
#X connect 0 0 1 0;
#X connect 1 0 13 0;
#X connect 1 0 14 0;
#X connect 1 0 5 0;
#X connect 2 0 3 0;
#X connect 2 1 3 1;
#X connect 3 0 4 0;
#X connect 4 0 20 0;
#X connect 5 0 15 0;
#X connect 5 0 16 0;
#X connect 6 0 7 0;
#X connect 6 1 7 1;
#X connect 7 0 8 0;
#X connect 8 0 21 0;
#X connect 9 0 17 0;
#X connect 9 0 18 0;
#X connect 10 0 11 0;
#X connect 10 1 11 1;
#X connect 11 0 12 0;
#X connect 12 0 22 0;
#X connect 13 0 3 0;
#X connect 14 0 2 0;
#X connect 15 0 7 0;
#X connect 16 0 6 0;
#X connect 17 0 11 0;
#X connect 18 0 10 0;
#X connect 19 0 9 0;
#X restore 201 152 pd colori;
#N canvas 0 50 450 300 colori 0;
#X obj 40 77 inlet;
#X obj 40 102 bng 15 250 50 0 empty empty empty 17 7 0 10 -262144 -1
-1;
#X obj 80 144 t b a;
#X obj 40 173 pack 0 0 0;
#X msg 40 195 color \$1 \$2 \$3;
#X obj 150 102 bng 15 250 50 0 empty empty empty 17 7 0 10 -262144
-1 -1;
#X obj 190 144 t b a;
#X obj 150 173 pack 0 0 0;
#X msg 150 195 color \$1 \$2 \$3;
#X obj 260 102 bng 15 250 50 0 empty empty empty 17 7 0 10 -262144
-1 -1;
#X obj 300 144 t b a;
#X obj 260 173 pack 0 0 0;
#X msg 260 195 color \$1 \$2 \$3;
#X msg 40 122 13;
#X msg 80 122 14;
#X msg 150 122 14;
#X msg 190 122 13;
#X msg 260 122 14;
#X msg 300 122 13;
#X obj 260 77 r time;
#X obj 40 217 s 3-4;
#X obj 150 217 s 3-3;
#X obj 260 217 s 3-4;
#X connect 0 0 1 0;
#X connect 1 0 13 0;
#X connect 1 0 14 0;
#X connect 1 0 5 0;
#X connect 2 0 3 0;
#X connect 2 1 3 1;
#X connect 3 0 4 0;
#X connect 4 0 20 0;
#X connect 5 0 15 0;
#X connect 5 0 16 0;
#X connect 6 0 7 0;
#X connect 6 1 7 1;
#X connect 7 0 8 0;
#X connect 8 0 21 0;
#X connect 9 0 17 0;
#X connect 9 0 18 0;
#X connect 10 0 11 0;
#X connect 10 1 11 1;
#X connect 11 0 12 0;
#X connect 12 0 22 0;
#X connect 13 0 3 0;
#X connect 14 0 2 0;
#X connect 15 0 7 0;
#X connect 16 0 6 0;
#X connect 17 0 11 0;
#X connect 18 0 10 0;
#X connect 19 0 9 0;
#X restore 201 172 pd colori;
#N canvas 0 50 450 300 colori 0;
#X obj 40 77 inlet;
#X obj 40 102 bng 15 250 50 0 empty empty empty 17 7 0 10 -262144 -1
-1;
#X obj 80 144 t b a;
#X obj 40 173 pack 0 0 0;
#X msg 40 195 color \$1 \$2 \$3;
#X obj 150 102 bng 15 250 50 0 empty empty empty 17 7 0 10 -262144
-1 -1;
#X obj 190 144 t b a;
#X obj 150 173 pack 0 0 0;
#X msg 150 195 color \$1 \$2 \$3;
#X obj 260 102 bng 15 250 50 0 empty empty empty 17 7 0 10 -262144
-1 -1;
#X obj 300 144 t b a;
#X obj 260 173 pack 0 0 0;
#X msg 260 195 color \$1 \$2 \$3;
#X msg 40 122 13;
#X msg 80 122 14;
#X msg 150 122 14;
#X msg 190 122 13;
#X msg 300 122 13;
#X obj 260 77 r time;
#X obj 40 217 s 2-1;
#X obj 150 217 s 1-4;
#X obj 260 217 s 2-1;
#X msg 260 122 24;
#X connect 0 0 1 0;
#X connect 1 0 13 0;
#X connect 1 0 14 0;
#X connect 1 0 5 0;
#X connect 2 0 3 0;
#X connect 2 1 3 1;
#X connect 3 0 4 0;
#X connect 4 0 19 0;
#X connect 5 0 15 0;
#X connect 5 0 16 0;
#X connect 6 0 7 0;
#X connect 6 1 7 1;
#X connect 7 0 8 0;
#X connect 8 0 20 0;
#X connect 9 0 22 0;
#X connect 9 0 17 0;
#X connect 10 0 11 0;
#X connect 10 1 11 1;
#X connect 11 0 12 0;
#X connect 12 0 21 0;
#X connect 13 0 3 0;
#X connect 14 0 2 0;
#X connect 15 0 7 0;
#X connect 16 0 6 0;
#X connect 17 0 10 0;
#X connect 18 0 9 0;
#X connect 22 0 11 0;
#X restore 131 112 pd colori;
#N canvas 0 50 450 300 colori 0;
#X obj 40 77 inlet;
#X obj 40 102 bng 15 250 50 0 empty empty empty 17 7 0 10 -262144 -1
-1;
#X obj 80 144 t b a;
#X obj 40 173 pack 0 0 0;
#X msg 40 195 color \$1 \$2 \$3;
#X obj 150 102 bng 15 250 50 0 empty empty empty 17 7 0 10 -262144
-1 -1;
#X obj 190 144 t b a;
#X obj 150 173 pack 0 0 0;
#X msg 150 195 color \$1 \$2 \$3;
#X obj 260 102 bng 15 250 50 0 empty empty empty 17 7 0 10 -262144
-1 -1;
#X obj 300 144 t b a;
#X obj 260 173 pack 0 0 0;
#X msg 260 195 color \$1 \$2 \$3;
#X msg 40 122 13;
#X msg 80 122 14;
#X msg 190 122 13;
#X msg 260 122 14;
#X msg 300 122 13;
#X obj 260 77 r time;
#X obj 40 216 s 2-2;
#X obj 150 217 s 2-1;
#X obj 260 217 s 2-2;
#X msg 150 122 24;
#X connect 0 0 1 0;
#X connect 1 0 13 0;
#X connect 1 0 14 0;
#X connect 1 0 5 0;
#X connect 2 0 3 0;
#X connect 2 1 3 1;
#X connect 3 0 4 0;
#X connect 4 0 19 0;
#X connect 5 0 22 0;
#X connect 5 0 15 0;
#X connect 6 0 7 0;
#X connect 6 1 7 1;
#X connect 7 0 8 0;
#X connect 8 0 20 0;
#X connect 9 0 16 0;
#X connect 9 0 17 0;
#X connect 10 0 11 0;
#X connect 10 1 11 1;
#X connect 11 0 12 0;
#X connect 12 0 21 0;
#X connect 13 0 3 0;
#X connect 14 0 2 0;
#X connect 15 0 6 0;
#X connect 16 0 11 0;
#X connect 17 0 10 0;
#X connect 18 0 9 0;
#X connect 22 0 7 0;
#X restore 131 132 pd colori;
#N canvas 0 50 450 300 colori 0;
#X obj 40 77 inlet;
#X obj 40 102 bng 15 250 50 0 empty empty empty 17 7 0 10 -262144 -1
-1;
#X obj 80 144 t b a;
#X obj 40 173 pack 0 0 0;
#X msg 40 195 color \$1 \$2 \$3;
#X obj 150 102 bng 15 250 50 0 empty empty empty 17 7 0 10 -262144
-1 -1;
#X obj 190 144 t b a;
#X obj 150 173 pack 0 0 0;
#X msg 150 195 color \$1 \$2 \$3;
#X obj 260 102 bng 15 250 50 0 empty empty empty 17 7 0 10 -262144
-1 -1;
#X obj 300 144 t b a;
#X obj 260 173 pack 0 0 0;
#X msg 260 195 color \$1 \$2 \$3;
#X msg 40 122 13;
#X msg 80 122 14;
#X msg 150 122 14;
#X msg 190 122 13;
#X msg 260 122 14;
#X msg 300 122 13;
#X obj 260 77 r time;
#X obj 40 217 s 2-3;
#X obj 150 217 s 2-2;
#X obj 260 217 s 2-3;
#X connect 0 0 1 0;
#X connect 1 0 13 0;
#X connect 1 0 14 0;
#X connect 1 0 5 0;
#X connect 2 0 3 0;
#X connect 2 1 3 1;
#X connect 3 0 4 0;
#X connect 4 0 20 0;
#X connect 5 0 15 0;
#X connect 5 0 16 0;
#X connect 6 0 7 0;
#X connect 6 1 7 1;
#X connect 7 0 8 0;
#X connect 8 0 21 0;
#X connect 9 0 17 0;
#X connect 9 0 18 0;
#X connect 10 0 11 0;
#X connect 10 1 11 1;
#X connect 11 0 12 0;
#X connect 12 0 22 0;
#X connect 13 0 3 0;
#X connect 14 0 2 0;
#X connect 15 0 7 0;
#X connect 16 0 6 0;
#X connect 17 0 11 0;
#X connect 18 0 10 0;
#X connect 19 0 9 0;
#X restore 131 152 pd colori;
#N canvas 0 50 450 300 colori 0;
#X obj 40 77 inlet;
#X obj 40 102 bng 15 250 50 0 empty empty empty 17 7 0 10 -262144 -1
-1;
#X obj 80 144 t b a;
#X obj 40 173 pack 0 0 0;
#X msg 40 195 color \$1 \$2 \$3;
#X obj 150 102 bng 15 250 50 0 empty empty empty 17 7 0 10 -262144
-1 -1;
#X obj 190 144 t b a;
#X obj 150 173 pack 0 0 0;
#X msg 150 195 color \$1 \$2 \$3;
#X obj 260 102 bng 15 250 50 0 empty empty empty 17 7 0 10 -262144
-1 -1;
#X obj 300 144 t b a;
#X obj 260 173 pack 0 0 0;
#X msg 260 195 color \$1 \$2 \$3;
#X msg 40 122 13;
#X msg 80 122 14;
#X msg 150 122 14;
#X msg 190 122 13;
#X msg 260 122 14;
#X msg 300 122 13;
#X obj 260 77 r time;
#X obj 40 217 s 2-4;
#X obj 150 217 s 2-3;
#X obj 260 217 s 2-4;
#X connect 0 0 1 0;
#X connect 1 0 13 0;
#X connect 1 0 14 0;
#X connect 1 0 5 0;
#X connect 2 0 3 0;
#X connect 2 1 3 1;
#X connect 3 0 4 0;
#X connect 4 0 20 0;
#X connect 5 0 15 0;
#X connect 5 0 16 0;
#X connect 6 0 7 0;
#X connect 6 1 7 1;
#X connect 7 0 8 0;
#X connect 8 0 21 0;
#X connect 9 0 17 0;
#X connect 9 0 18 0;
#X connect 10 0 11 0;
#X connect 10 1 11 1;
#X connect 11 0 12 0;
#X connect 12 0 22 0;
#X connect 13 0 3 0;
#X connect 14 0 2 0;
#X connect 15 0 7 0;
#X connect 16 0 6 0;
#X connect 17 0 11 0;
#X connect 18 0 10 0;
#X connect 19 0 9 0;
#X restore 131 172 pd colori;
#N canvas 0 50 450 300 colori 0;
#X obj 40 77 inlet;
#X obj 40 102 bng 15 250 50 0 empty empty empty 17 7 0 10 -262144 -1
-1;
#X obj 80 144 t b a;
#X obj 40 173 pack 0 0 0;
#X msg 40 195 color \$1 \$2 \$3;
#X obj 150 102 bng 15 250 50 0 empty empty empty 17 7 0 10 -262144
-1 -1;
#X obj 190 144 t b a;
#X obj 150 173 pack 0 0 0;
#X msg 150 195 color \$1 \$2 \$3;
#X obj 260 102 bng 15 250 50 0 empty empty empty 17 7 0 10 -262144
-1 -1;
#X obj 300 144 t b a;
#X obj 260 173 pack 0 0 0;
#X msg 260 195 color \$1 \$2 \$3;
#X msg 190 122 13;
#X obj 260 77 r time;
#X obj 40 217 s 1-1;
#X obj 150 217 s 4-4;
#X obj 260 217 s 1-1;
#X msg 300 122 13;
#X msg 40 122 13;
#X msg 80 122 14;
#X msg 150 122 14;
#X msg 260 122 24;
#X connect 0 0 1 0;
#X connect 1 0 19 0;
#X connect 1 0 20 0;
#X connect 1 0 5 0;
#X connect 2 0 3 0;
#X connect 2 1 3 1;
#X connect 3 0 4 0;
#X connect 4 0 15 0;
#X connect 5 0 21 0;
#X connect 5 0 13 0;
#X connect 6 0 7 0;
#X connect 6 1 7 1;
#X connect 7 0 8 0;
#X connect 8 0 16 0;
#X connect 9 0 22 0;
#X connect 9 0 18 0;
#X connect 10 0 11 0;
#X connect 10 1 11 1;
#X connect 11 0 12 0;
#X connect 12 0 17 0;
#X connect 13 0 6 0;
#X connect 14 0 9 0;
#X connect 18 0 10 0;
#X connect 19 0 3 0;
#X connect 20 0 2 0;
#X connect 21 0 7 0;
#X connect 22 0 11 0;
#X restore 61 112 pd colori;
#N canvas 0 50 450 300 colori 0;
#X obj 40 77 inlet;
#X obj 40 102 bng 15 250 50 0 empty empty empty 17 7 0 10 -262144 -1
-1;
#X obj 80 144 t b a;
#X obj 40 173 pack 0 0 0;
#X msg 40 195 color \$1 \$2 \$3;
#X obj 150 102 bng 15 250 50 0 empty empty empty 17 7 0 10 -262144
-1 -1;
#X obj 190 144 t b a;
#X obj 150 173 pack 0 0 0;
#X msg 150 195 color \$1 \$2 \$3;
#X obj 260 102 bng 15 250 50 0 empty empty empty 17 7 0 10 -262144
-1 -1;
#X obj 300 144 t b a;
#X obj 260 173 pack 0 0 0;
#X msg 260 195 color \$1 \$2 \$3;
#X msg 40 122 13;
#X msg 80 122 14;
#X msg 190 122 13;
#X msg 260 122 14;
#X msg 300 122 13;
#X obj 260 77 r time;
#X obj 40 216 s 1-2;
#X obj 150 217 s 1-1;
#X obj 260 217 s 1-2;
#X msg 150 122 24;
#X connect 0 0 1 0;
#X connect 1 0 13 0;
#X connect 1 0 14 0;
#X connect 1 0 5 0;
#X connect 2 0 3 0;
#X connect 2 1 3 1;
#X connect 3 0 4 0;
#X connect 4 0 19 0;
#X connect 5 0 22 0;
#X connect 5 0 15 0;
#X connect 6 0 7 0;
#X connect 6 1 7 1;
#X connect 7 0 8 0;
#X connect 8 0 20 0;
#X connect 9 0 16 0;
#X connect 9 0 17 0;
#X connect 10 0 11 0;
#X connect 10 1 11 1;
#X connect 11 0 12 0;
#X connect 12 0 21 0;
#X connect 13 0 3 0;
#X connect 14 0 2 0;
#X connect 15 0 6 0;
#X connect 16 0 11 0;
#X connect 17 0 10 0;
#X connect 18 0 9 0;
#X connect 22 0 7 0;
#X restore 61 132 pd colori;
#N canvas 0 50 450 300 colori 0;
#X obj 40 77 inlet;
#X obj 40 102 bng 15 250 50 0 empty empty empty 17 7 0 10 -262144 -1
-1;
#X obj 80 144 t b a;
#X obj 40 173 pack 0 0 0;
#X msg 40 195 color \$1 \$2 \$3;
#X obj 150 102 bng 15 250 50 0 empty empty empty 17 7 0 10 -262144
-1 -1;
#X obj 190 144 t b a;
#X obj 150 173 pack 0 0 0;
#X msg 150 195 color \$1 \$2 \$3;
#X obj 260 102 bng 15 250 50 0 empty empty empty 17 7 0 10 -262144
-1 -1;
#X obj 300 144 t b a;
#X obj 260 173 pack 0 0 0;
#X msg 260 195 color \$1 \$2 \$3;
#X msg 40 122 13;
#X msg 80 122 14;
#X msg 150 122 14;
#X msg 190 122 13;
#X msg 260 122 14;
#X msg 300 122 13;
#X obj 260 77 r time;
#X obj 40 217 s 1-3;
#X obj 150 217 s 1-2;
#X obj 260 217 s 1-3;
#X connect 0 0 1 0;
#X connect 1 0 13 0;
#X connect 1 0 14 0;
#X connect 1 0 5 0;
#X connect 2 0 3 0;
#X connect 2 1 3 1;
#X connect 3 0 4 0;
#X connect 4 0 20 0;
#X connect 5 0 15 0;
#X connect 5 0 16 0;
#X connect 6 0 7 0;
#X connect 6 1 7 1;
#X connect 7 0 8 0;
#X connect 8 0 21 0;
#X connect 9 0 17 0;
#X connect 9 0 18 0;
#X connect 10 0 11 0;
#X connect 10 1 11 1;
#X connect 11 0 12 0;
#X connect 12 0 22 0;
#X connect 13 0 3 0;
#X connect 14 0 2 0;
#X connect 15 0 7 0;
#X connect 16 0 6 0;
#X connect 17 0 11 0;
#X connect 18 0 10 0;
#X connect 19 0 9 0;
#X restore 61 152 pd colori;
#N canvas 0 50 450 300 colori 0;
#X obj 40 77 inlet;
#X obj 40 102 bng 15 250 50 0 empty empty empty 17 7 0 10 -262144 -1
-1;
#X obj 80 144 t b a;
#X obj 40 173 pack 0 0 0;
#X msg 40 195 color \$1 \$2 \$3;
#X obj 150 102 bng 15 250 50 0 empty empty empty 17 7 0 10 -262144
-1 -1;
#X obj 190 144 t b a;
#X obj 150 173 pack 0 0 0;
#X msg 150 195 color \$1 \$2 \$3;
#X obj 260 102 bng 15 250 50 0 empty empty empty 17 7 0 10 -262144
-1 -1;
#X obj 300 144 t b a;
#X obj 260 173 pack 0 0 0;
#X msg 260 195 color \$1 \$2 \$3;
#X msg 80 122 14;
#X msg 190 122 13;
#X msg 300 122 13;
#X obj 260 77 r time;
#X obj 40 217 s 1-4;
#X obj 150 217 s 1-3;
#X obj 260 217 s 1-4;
#X msg 40 122 13;
#X msg 260 122 14;
#X msg 150 122 14;
#X connect 0 0 1 0;
#X connect 1 0 20 0;
#X connect 1 0 13 0;
#X connect 1 0 5 0;
#X connect 2 0 3 0;
#X connect 2 1 3 1;
#X connect 3 0 4 0;
#X connect 4 0 17 0;
#X connect 5 0 22 0;
#X connect 5 0 14 0;
#X connect 6 0 7 0;
#X connect 6 1 7 1;
#X connect 7 0 8 0;
#X connect 8 0 18 0;
#X connect 9 0 21 0;
#X connect 9 0 15 0;
#X connect 10 0 11 0;
#X connect 10 1 11 1;
#X connect 11 0 12 0;
#X connect 12 0 19 0;
#X connect 13 0 2 0;
#X connect 14 0 6 0;
#X connect 15 0 10 0;
#X connect 16 0 9 0;
#X connect 20 0 3 0;
#X connect 21 0 11 0;
#X connect 22 0 7 0;
#X restore 61 172 pd colori;
#X obj 30 82 route 0 1 2 3 4 5 6 7 8 9 10 11 12 13 14 15;
#X obj 30 56 r ndx;
#X connect 16 0 12 0;
#X connect 16 1 13 0;
#X connect 16 2 14 0;
#X connect 16 3 15 0;
#X connect 16 4 8 0;
#X connect 16 5 9 0;
#X connect 16 6 10 0;
#X connect 16 7 11 0;
#X connect 16 8 4 0;
#X connect 16 9 5 0;
#X connect 16 10 6 0;
#X connect 16 11 7 0;
#X connect 16 12 0 0;
#X connect 16 13 1 0;
#X connect 16 14 2 0;
#X connect 16 15 3 0;
#X connect 17 0 16 0;
#X restore 155 81 pd colorazione;
#X obj 21 132 s QfrqX;
#X obj 21 107 line;
#X msg 21 79 50 125;
#X msg 86 79 245 125;
#X obj 86 110 line;
#X obj 86 132 s ReleaseX;
#X connect 0 0 1 0;
#X connect 0 0 2 0;
#X connect 2 0 6 0;
#X connect 2 0 7 0;
#X connect 5 0 4 0;
#X connect 6 0 5 0;
#X connect 7 0 8 0;
#X connect 8 0 9 0;
#X restore 755 179 pd init;
#X obj 162 69 knob 32 32 0 127 0 0 empty empty empty 0 -8 0 8 -262144
-1 -1 0 1;
#X floatatom 162 109 5 0 0 0 - - -, f 5;
#X obj 202 69 knob 32 32 0 127 0 0 empty empty empty 0 -8 0 8 -262144
-1 -1 0 1;
#X floatatom 202 109 5 0 0 0 - - -, f 5;
#X obj 242 69 knob 32 32 0 1000 0 0 empty ReleaseX R 0 -8 0 8 -262144
-258113 -1 759 1;
#X floatatom 242 109 5 0 0 0 - - Release, f 5;
#X obj 282 69 knob 32 32 0 100 0 0 empty QfrqX Q 0 -8 0 8 -4032 -260097
-1 1550 1;
#X floatatom 282 109 5 0 0 0 - - Qfrq, f 5;
#X obj 322 69 knob 32 32 0 1000 0 0 empty Cfrqx Reso 0 -8 0 8 -260097
-4032 -1 2712 1;
#X floatatom 322 109 5 0 0 0 - - Cfrq2, f 5;
#X obj 726 391 tgl 15 0 empty start Run 17 7 0 10 -4034 -1 -1 1 1;
#N canvas 0 50 515 300 suddivisioni 0;
#X obj 101 101 cnv 15 148 48 empty empty empty 20 12 0 14 -191407 -66577
0;
#X floatatom 291 34 5 0 0 0 Bpm - -, f 5;
#X obj 291 54 expr (60*1000)/$f1;
#X obj 291 177 / 2;
#X obj 326 75 hradio 15 1 0 4 empty empty empty 0 -8 0 10 -262144 -1
-1 2;
#X msg 326 122 1;
#X msg 366 122 2;
#X msg 406 122 4;
#X msg 446 122 8;
#X obj 326 94 route 0 1 2 3;
#X floatatom 326 150 5 0 0 0 - - -, f 5;
#X obj 369 150 bng 15 250 50 0 empty empty empty 17 7 0 10 -262144
-1 -1;
#X obj 291 197 outlet;
#X obj 183 132 hradio 15 1 0 4 empty empty empty 0 -8 0 10 -66577 -262144
-1 2;
#X text 182 113 4;
#X text 196 113 8;
#X text 209 113 16;
#X text 228 113 32;
#X floatatom 132 128 5 0 0 0 Bpm - -, f 5;
#X obj 132 26 bng 15 250 50 0 empty start empty 17 7 0 10 -4034 -1
-1;
#X obj 232 208 s time;
#X msg 183 58 2;
#X msg 132 58 92;
#X connect 1 0 2 0;
#X connect 2 0 3 0;
#X connect 3 0 12 0;
#X connect 3 0 20 0;
#X connect 4 0 9 0;
#X connect 5 0 10 0;
#X connect 6 0 10 0;
#X connect 7 0 10 0;
#X connect 8 0 10 0;
#X connect 9 0 5 0;
#X connect 9 1 6 0;
#X connect 9 2 7 0;
#X connect 9 3 8 0;
#X connect 10 0 3 1;
#X connect 10 0 11 0;
#X connect 11 0 1 0;
#X connect 13 0 4 0;
#X connect 18 0 1 0;
#X connect 19 0 22 0;
#X connect 19 0 21 0;
#X connect 21 0 13 0;
#X connect 22 0 18 0;
#X coords 0 -1 1 1 150 50 1 100 100;
#X restore 766 404 pd suddivisioni;
#X obj 807 461 tgl 15 0 empty autoreso Auto-Reso 17 7 0 10 -4034 -1
-1 1 1;
#X obj 122 -1 cnv 15 238 48 empty empty empty 20 12 0 14 -258113 -66577
0;
#X obj 352 98 tgl 8 0 autoreso start empty 9 4 0 8 -4034 -1 -1 1 1
;
#X obj 415 305 vradio 15 1 0 3 empty empty empty 0 -8 0 10 -262144
-1 -1 1;
#X obj 415 407 * 12;
#X obj 415 428 s ottava;
#X obj 435 305 vradio 15 1 0 3 empty empty empty 0 -8 0 10 -262144
-1 -1 1;
#X obj 455 305 vradio 15 1 0 3 empty empty empty 0 -8 0 10 -262144
-1 -1 1;
#X obj 475 305 vradio 15 1 0 3 empty empty empty 0 -8 0 10 -262144
-1 -1 1;
#X obj 415 279 bng 15 250 50 0 empty s1-1 empty 17 7 0 10 -262144 -1
-1;
#X obj 435 279 bng 15 250 50 0 empty s2-1 empty 17 7 0 10 -262144 -1
-1;
#X obj 455 279 bng 15 250 50 0 empty s3-1 empty 17 7 0 10 -262144 -1
-1;
#X obj 475 279 bng 15 250 50 0 empty s4-1 empty 17 7 0 10 -262144 -1
-1;
#X obj 415 362 - 3;
#X obj 415 383 * -1;
#X obj 380 265 bng 15 250 50 0 empty start empty 17 7 0 10 -4034 -1
-1;
#N canvas 370 270 484 300 revctrl 0;
#X msg 266 93 roomsize \$1;
#X msg 266 115 damping \$1;
#X msg 266 137 width \$1;
#X msg 266 159 wet \$1;
#X msg 266 181 dry \$1;
#X obj 114 128 vsl 10 50 0 1 0 0 empty empty empty 0 -9 0 10 -262144
-1 -1 4498 1;
#X obj 134 128 vsl 10 50 0 1 0 0 empty empty empty 0 -9 0 10 -262144
-1 -1 2499 1;
#X obj 154 128 vsl 10 50 0 1 0 0 empty empty empty 0 -9 0 10 -262144
-1 -1 4395 1;
#X obj 174 128 vsl 10 50 0 1 0 0 empty empty empty 0 -9 0 10 -262144
-1 -1 799 1;
#X obj 194 128 vsl 10 50 0 1 0 0 empty empty empty 0 -9 0 10 -262144
-1 -1 4096 1;
#X text 112 179 RS;
#X text 132 179 DP;
#X text 152 179 WD;
#X text 172 179 WE;
#X text 192 179 DR;
#X floatatom 34 208 5 0 0 0 - - -, f 5;
#X floatatom 74 208 5 0 0 0 - - -, f 5;
#X floatatom 114 208 5 0 0 0 - - -, f 5;
#X floatatom 154 208 5 0 0 0 - - -, f 5;
#X floatatom 194 208 5 0 0 0 - - -, f 5;
#X msg 146 48 0.51;
#X obj 96 22 bng 15 250 50 0 empty empty empty 17 7 0 10 -262144 -1
-1;
#X obj 96 -4 loadbang;
#X obj 200 104 bng 10 250 50 0 empty empty empty 17 7 0 10 -1 -258113
-1;
#X msg 96 48 0.918;
#X obj 349 198 freeverb~;
#X obj 350 166 inlet~;
#X obj 408 166 inlet~;
#X obj 350 226 outlet~;
#X obj 410 226 outlet~;
#X msg 196 48 0.897;
#X msg 246 48 0.163;
#X msg 296 48 0.836;
#X connect 0 0 25 0;
#X connect 1 0 25 0;
#X connect 2 0 25 0;
#X connect 3 0 25 0;
#X connect 4 0 25 0;
#X connect 5 0 0 0;
#X connect 5 0 15 0;
#X connect 6 0 1 0;
#X connect 6 0 16 0;
#X connect 7 0 2 0;
#X connect 7 0 17 0;
#X connect 8 0 3 0;
#X connect 8 0 18 0;
#X connect 9 0 4 0;
#X connect 9 0 19 0;
#X connect 20 0 6 0;
#X connect 21 0 24 0;
#X connect 21 0 20 0;
#X connect 21 0 30 0;
#X connect 21 0 31 0;
#X connect 21 0 32 0;
#X connect 22 0 21 0;
#X connect 23 0 21 0;
#X connect 24 0 5 0;
#X connect 25 0 28 0;
#X connect 25 1 29 0;
#X connect 26 0 25 0;
#X connect 27 0 25 1;
#X connect 30 0 7 0;
#X connect 31 0 8 0;
#X connect 32 0 9 0;
#X coords 0 -1 1 1 120 100 1 100 100;
#X restore 756 236 pd revctrl;
#X obj 755 354 dac~;
#X obj 538 35 spigot;
#X obj 577 -11 tgl 15 0 empty empty empty 17 7 0 10 -262144 -1 -1 0
1;
#X obj 524 418 line;
#X obj 524 482 s Cfrqx;
#X obj 524 294 bng 15 250 50 0 empty empty empty 17 7 0 10 -262144
-1 -1;
#X obj 616 309 del 200;
#X floatatom 662 454 5 0 0 0 - - -, f 5;
#X msg 616 401 0 \, 1000 80;
#X msg 524 346 1000 \, 0 80;
#X obj 524 456 spigot;
#X obj 563 432 tgl 15 0 empty empty empty 17 7 0 10 -262144 -1 -1 0
1;
#X msg 380 288 1;
#X connect 25 0 27 0;
#X connect 25 1 28 0;
#X connect 25 2 29 0;
#X connect 25 3 30 0;
#X connect 25 4 31 0;
#X connect 25 5 32 0;
#X connect 25 6 33 0;
#X connect 25 7 34 0;
#X connect 25 8 35 0;
#X connect 25 9 36 0;
#X connect 25 10 37 0;
#X connect 25 11 38 0;
#X connect 25 12 39 0;
#X connect 25 13 40 0;
#X connect 25 14 41 0;
#X connect 25 15 42 0;
#X connect 26 0 25 0;
#X connect 27 0 43 0;
#X connect 28 0 43 0;
#X connect 29 0 43 0;
#X connect 30 0 43 0;
#X connect 31 0 43 0;
#X connect 32 0 43 0;
#X connect 33 0 43 0;
#X connect 34 0 43 0;
#X connect 35 0 43 0;
#X connect 36 0 43 0;
#X connect 37 0 43 0;
#X connect 38 0 43 0;
#X connect 39 0 43 0;
#X connect 40 0 43 0;
#X connect 41 0 43 0;
#X connect 42 0 43 0;
#X connect 43 0 49 0;
#X connect 43 0 52 0;
#X connect 45 0 92 0;
#X connect 46 0 53 0;
#X connect 48 0 49 0;
#X connect 49 0 51 0;
#X connect 51 0 44 0;
#X connect 52 0 51 1;
#X connect 53 0 48 0;
#X connect 55 0 56 0;
#X connect 56 0 27 0;
#X connect 56 0 31 0;
#X connect 56 0 35 0;
#X connect 56 0 39 0;
#X connect 57 0 90 0;
#X connect 57 0 90 1;
#X connect 58 0 59 0;
#X connect 62 0 63 0;
#X connect 64 0 65 0;
#X connect 66 0 67 0;
#X connect 68 0 69 0;
#X connect 70 0 71 0;
#X connect 72 0 60 0;
#X connect 73 0 60 1;
#X connect 73 0 98 0;
#X connect 74 0 60 2;
#X connect 77 0 87 0;
#X connect 78 0 79 0;
#X connect 80 0 87 0;
#X connect 81 0 87 0;
#X connect 82 0 87 0;
#X connect 83 0 77 0;
#X connect 83 0 96 0;
#X connect 84 0 80 0;
#X connect 84 0 96 0;
#X connect 85 0 81 0;
#X connect 85 0 96 0;
#X connect 86 0 82 0;
#X connect 86 0 96 0;
#X connect 87 0 88 0;
#X connect 88 0 78 0;
#X connect 89 0 103 0;
#X connect 90 0 91 0;
#X connect 90 1 91 1;
#X connect 92 0 46 0;
#X connect 93 0 92 1;
#X connect 94 0 101 0;
#X connect 96 0 100 0;
#X connect 96 0 97 0;
#X connect 97 0 99 0;
#X connect 98 0 97 1;
#X connect 99 0 94 0;
#X connect 100 0 94 0;
#X connect 101 0 95 0;
#X connect 102 0 101 1;
#X connect 103 0 82 0;
#X connect 103 0 81 0;
#X connect 103 0 80 0;
#X connect 103 0 77 0;
